# Split from bedDouble.obj mat=carpetWhite
v -0.928 0.125 0.025 
v -0.928 0.225 0.025 
v -0.928 0.125 1.025 
v -0.928 0.225 1.025 
v -0.028 0.225 0.025 
v -0.028 0.125 0.025 
v -0.028 0.225 1.025 
v -0.028 0.125 1.025 
v -0.9280001 0.225 0.821577 
v -0.02800001 0.225 0.8215771 
v -0.9460002 0.15 0.6993479 
v -0.9280001 0.15 0.6993479 
v -0.009999992 0.15 0.699348 
v -0.028 0.15 0.699348 
v -0.02800001 0.15 0.8215771 
v -0.9280001 0.15 0.821577 
v -0.009999992 0.225 0.699348 
v -0.028 0.25 0.699348 
v -0.9280001 0.25 0.6993479 
v -0.9460002 0.225 0.6993479 
v -0.02300001 0.26 0.8215771 
v -0.9330001 0.26 0.821577 
v -0.9560001 0.15 0.821577 
v -0.9560001 0.23 0.821577 
v -2.793968E-09 0.15 0.8215771 
v -2.793968E-09 0.23 0.8215771 
v -0.9560001 0.15 0.6993479 
v -0.02299999 0.26 0.699348 
v -0.9330001 0.26 0.6993479 
v -0.9560001 0.23 0.6993479 
v 8.381903E-09 0.15 0.699348 
v 8.381903E-09 0.23 0.699348 
v -0.4088 0.2832339 0.9966984 
v -0.4088 0.2646846 0.8498654 
v -0.1572 0.2832339 0.9966984 
v -0.1572 0.2646846 0.8498654 
v -0.4088 0.2435493 1.001712 
v -0.1572 0.2435493 1.001712 
v -0.4088 0.225 0.8548787 
v -0.1572 0.225 0.8548787 
v -0.4088 0.2666503 1.025 
v -0.1572 0.2666503 1.025 
v -0.113 0.2633916 0.9992051 
v -0.113 0.2448423 0.8523721 
v -0.4088 0.2415836 0.8265771 
v -0.1572 0.2415836 0.8265771 
v -0.453 0.2633916 0.9992051 
v -0.453 0.2448423 0.8523721 
v -0.7988 0.2832339 0.9966984 
v -0.7988 0.2646846 0.8498654 
v -0.5472 0.2832339 0.9966984 
v -0.5472 0.2646846 0.8498654 
v -0.7988 0.2435493 1.001712 
v -0.5472 0.2435493 1.001712 
v -0.7988 0.225 0.8548787 
v -0.5472 0.225 0.8548787 
v -0.7988 0.2666503 1.025 
v -0.5472 0.2666503 1.025 
v -0.503 0.2633916 0.9992051 
v -0.503 0.2448423 0.8523721 
v -0.7988 0.2415836 0.8265771 
v -0.5472 0.2415836 0.8265771 
v -0.8430001 0.2633916 0.9992051 
v -0.8430001 0.2448423 0.8523721 
vt 0.984252 4.92126 
vt 0.984252 8.858268 
vt 40.35433 4.92126 
vt 40.35433 8.858268 
vt -0.984252 8.858268 
vt -0.984252 4.92126 
vt -40.35433 8.858268 
vt -40.35433 4.92126 
vt 1.102362 0.984252 
vt 1.102362 40.35433 
vt 36.53543 0.984252 
vt 36.53543 40.35433 
vt 1.102362 4.92126 
vt 1.102362 8.858268 
vt 36.53543 4.92126 
vt 36.53543 8.858268 
vt 2.30514 72.28346 
vt 2.30514 1.417323 
vt -7.319192 73.70079 
vt -7.319192 72.28346 
vt -7.319192 1.417323 
vt 2.30514 -5.11811 
vt -7.319192 -5.11811 
vt -1.417323 0.7874016 
vt -1.417323 -5.11811 
vt -72.28346 0.7874016 
vt -72.28346 -5.11811 
vt 73.70079 -5.11811 
vt 73.70079 0.7874016 
vt 7.319192 -5.11811 
vt -2.30514 -5.11811 
vt -1.023622 3.543307 
vt -72.67716 3.543307 
vt -74.48819 -5.11811 
vt -74.48819 1.181102 
vt 0.7874016 -5.11811 
vt 0.7874016 1.181102 
vt 2.30514 74.48819 
vt -7.319192 74.48819 
vt -2.30514 1.023622 
vt -2.30514 72.67716 
vt 7.319192 1.023622 
vt 7.319192 72.67716 
vt -7.319192 -44.38363 
vt -7.319192 -41.40709 
vt 2.30514 -44.38363 
vt 2.30514 -41.40709 
vt -7.319192 1.181102 
vt 2.30514 1.181102 
vt 7.319192 1.181102 
vt -2.30514 1.181102 
vt 7.319192 0.4582504 
vt -2.30514 0.4582504 
vt 7.319192 3.434795 
vt -2.30514 3.434795 
vt -0.7874016 -5.11811 
vt -0.7874016 1.181102 
vt -9.799157E-16 -5.11811 
vt -9.799157E-16 0.7874016 
vt 1.023622 3.543307 
vt 1.417323 2.755906 
vt 72.67716 3.543307 
vt 72.28346 2.755906 
vt 74.48819 1.181102 
vt 74.48819 -5.11811 
vt 2.30514 -0.7874016 
vt -7.319192 -0.7874016 
vt -7.319192 -1.319033E-13 
vt 2.047244 13.70079 
vt 13.70079 13.70079 
vt 2.047244 2.047244 
vt 13.70079 2.047244 
vt -2.047244 13.70079 
vt -2.047244 2.047244 
vt -13.70079 13.70079 
vt -13.70079 2.047244 
vt -13.70079 2.400436 
vt -2.047244 2.400436 
vt -13.70079 -0.1824331 
vt -2.047244 -0.1824331 
vt -13.70079 4.983305 
vt -2.047244 4.983305 
vt 2.047244 2.400436 
vt 13.70079 2.400436 
vt 2.047244 -0.1824331 
vt 13.70079 -0.1824331 
vt 13.70079 -7.498962 
vt 13.70079 -10.08183 
vt 2.047244 -7.498962 
vt 2.047244 -10.08183 
vt -2.047244 -7.498962 
vt -2.047244 -10.08183 
vt -13.70079 -7.498962 
vt -13.70079 -10.08183 
vt -2.047244 12.29983 
vt -13.70079 12.29983 
vt -2.047244 14.8827 
vt -13.70079 14.8827 
vt 2.047244 4.983305 
vt 13.70079 4.983305 
vt 13.70079 12.29983 
vt 2.047244 12.29983 
vt 13.70079 14.8827 
vt 2.047244 14.8827 
vt -6.613012E-16 3.937008 
vt -2.047244 2.362205 
vt -2.047244 5.511811 
vt -13.70079 2.362205 
vt -13.70079 5.511811 
vt -15.74803 3.937008 
vt 4.022339E-14 3.937008 
vt 1.421085E-14 3.937008 
vt 2.047244 5.511811 
vt 2.047244 2.362205 
vt 13.70079 2.362205 
vt 13.70079 5.511811 
vt 15.74803 3.937008 
vt 8.350166E-14 3.937008 
vt -1.44762 1.918784 
vt 1.44762 1.918784 
vt 9.126033E-14 -0.2202834 
vt 1.44762 3.878146 
vt -1.44762 3.878146 
vt 5.018208E-14 6.017214 
vt -11.13554 -1.518796 
vt -9.68792 -3.657863 
vt -12.58316 -3.657863 
vt -9.68792 9.454794 
vt -11.13554 7.315726 
vt -12.58316 9.454794 
vt -2.664535E-14 -9.054806 
vt 1.44762 -11.19387 
vt -1.44762 -11.19387 
vt 1.44762 16.9908 
vt -9.769963E-14 14.85174 
vt -1.44762 16.9908 
vt 2.853098E-14 13.70079 
vt -8.515585E-14 2.047244 
vt -2.047244 15.74803 
vt -2.047244 2.123456E-16 
vt -13.70079 1.44232E-14 
vt -13.70079 15.74803 
vt -15.74803 13.70079 
vt -15.74803 2.047244 
vt 9.68792 -3.657863 
vt 11.13554 -1.518796 
vt 12.58316 -3.657863 
vt 11.13554 7.315726 
vt 9.68792 9.454794 
vt 12.58316 9.454794 
vn -1 0 0 
vn 1 0 0 
vn 0 1 0 
vn 0 0 -1 
vn 0 -1 0 
vn -1 0 -1.192093E-07 
vn -1.192093E-07 0 1 
vn 1.192093E-07 0 -1 
vn 1 0 1.192093E-07 
vn -0.7936065 0.6084315 -9.460525E-08 
vn 0.7936065 0.6084315 9.460525E-08 
vn 0 0.9921147 -0.1253332 
vn 0 -0.9921147 0.1253332 
vn -2.498484E-08 -0.7099569 0.7042452 
vn -2.498484E-08 0.862791 0.5055609 
vn 0.6097108 -0.786374 0.09934217 
vn 2.498484E-08 0.7099569 -0.7042452 
vn -0.6097108 0.786374 -0.09934217 
vn -0.6097108 -0.786374 0.09934212 
vn 0.6097108 0.786374 -0.09934212 
vn 2.498484E-08 -0.862791 -0.5055609 
vn -4.097819E-08 0.1253332 0.9921147 
vn -1 0 -4.097819E-08 
vn 4.097819E-08 -0.1253332 -0.9921147 
vn 1 0 4.097819E-08 
vn 0.5205792 -0.6061707 0.6012939 
vn 0.5205792 0.7366624 0.4316546 
vn -0.5205792 0.7366624 0.4316546 
vn -0.5205792 -0.6061707 0.6012939 
vn -0.5205792 0.6061707 -0.6012939 
vn -0.5205792 -0.7366624 -0.4316546 
vn 0.5205792 0.6061707 -0.6012939 
vn 0.5205792 -0.7366624 -0.4316546 
f 2/2/1 1/1/1 3/3/1
f 3/3/1 4/4/1 2/2/1
f 6/6/2 5/5/2 7/7/2
f 7/7/2 8/8/2 6/6/2
f 7/10/3 5/9/3 2/11/3
f 2/11/3 4/12/3 7/10/3
f 5/14/4 6/13/4 1/15/4
f 1/15/4 2/16/4 5/14/4
f 2/2/1 1/1/1 3/3/1
f 3/3/1 4/4/1 2/2/1
f 6/6/2 5/5/2 7/7/2
f 7/7/2 8/8/2 6/6/2
f 7/10/3 5/9/3 2/11/3
f 2/11/3 4/12/3 7/10/3
f 5/14/4 6/13/4 1/15/4
f 1/15/4 2/16/4 5/14/4
f 10/24/7 21/32/7 22/33/7
f 22/33/7 9/26/7 10/24/7
f 22/33/7 16/27/7 9/26/7
f 22/33/7 23/34/7 16/27/7
f 22/33/7 24/35/7 23/34/7
f 21/32/7 10/24/7 15/25/7
f 21/32/7 15/25/7 25/36/7
f 25/36/7 26/37/7 21/32/7
f 11/19/5 23/38/5 27/39/5
f 23/38/5 11/19/5 12/20/5
f 12/20/5 16/17/5 23/38/5
f 22/41/3 21/40/3 28/42/3
f 28/42/3 29/43/3 22/41/3
f 29/45/10 30/44/10 24/46/10
f 24/46/10 22/47/10 29/45/10
f 30/48/6 27/23/6 23/22/6
f 23/22/6 24/49/6 30/48/6
f 25/31/9 31/30/9 32/50/9
f 32/50/9 26/51/9 25/31/9
f 26/53/11 32/52/11 28/54/11
f 28/54/11 21/55/11 26/53/11
f 32/57/8 31/56/8 13/58/8
f 13/58/8 17/59/8 32/57/8
f 17/59/8 28/60/8 32/57/8
f 17/59/8 18/61/8 28/60/8
f 18/61/8 29/62/8 28/60/8
f 18/61/8 19/63/8 29/62/8
f 19/63/8 20/29/8 29/62/8
f 20/29/8 30/64/8 29/62/8
f 20/29/8 11/28/8 30/64/8
f 11/28/8 27/65/8 30/64/8
f 25/66/5 15/18/5 14/21/5
f 14/21/5 31/67/5 25/66/5
f 14/21/5 13/68/5 31/67/5
f 34/70/12 33/69/12 35/71/12
f 35/71/12 36/72/12 34/70/12
f 38/74/13 37/73/13 39/75/13
f 39/75/13 40/76/13 38/74/13
f 42/78/14 41/77/14 37/79/14
f 37/79/14 38/80/14 42/78/14
f 33/81/15 41/77/15 42/78/15
f 42/78/15 35/82/15 33/81/15
f 44/84/16 43/83/16 38/85/16
f 38/85/16 40/86/16 44/84/16
f 45/88/17 34/87/17 36/89/17
f 36/89/17 46/90/17 45/88/17
f 47/92/18 33/91/18 34/93/18
f 34/93/18 48/94/18 47/92/18
f 39/96/19 37/95/19 47/97/19
f 47/97/19 48/98/19 39/96/19
f 35/99/20 43/83/20 44/84/20
f 44/84/20 36/100/20 35/99/20
f 40/102/21 39/101/21 45/103/21
f 45/103/21 46/104/21 40/102/21
f 38/106/22 43/105/22 35/107/22
f 35/107/22 37/108/22 38/106/22
f 35/107/22 33/109/22 37/108/22
f 33/109/22 47/110/22 37/108/22
f 39/108/23 37/106/23 41/111/23
f 41/111/23 45/110/23 39/108/23
f 41/111/23 33/107/23 45/110/23
f 33/107/23 34/109/23 45/110/23
f 36/113/24 44/112/24 40/114/24
f 40/114/24 39/115/24 36/113/24
f 39/115/24 34/116/24 36/113/24
f 39/115/24 48/117/24 34/116/24
f 42/118/25 38/114/25 40/115/25
f 40/115/25 46/117/25 42/118/25
f 46/117/25 35/113/25 42/118/25
f 46/117/25 36/116/25 35/113/25
f 43/120/26 42/119/26 38/121/26
f 42/123/27 43/122/27 35/124/27
f 41/126/28 33/125/28 47/127/28
f 37/129/29 41/128/29 47/130/29
f 48/132/30 34/131/30 45/133/30
f 39/135/31 48/134/31 45/136/31
f 42/138/13 41/137/13 47/139/13
f 47/139/13 43/140/13 42/138/13
f 47/139/13 44/141/13 43/140/13
f 47/139/13 48/142/13 44/141/13
f 48/142/13 45/143/13 44/141/13
f 45/143/13 46/144/13 44/141/13
f 36/146/32 44/145/32 46/147/32
f 44/149/33 40/148/33 46/150/33
f 50/70/12 49/69/12 51/71/12
f 51/71/12 52/72/12 50/70/12
f 54/74/13 53/73/13 55/75/13
f 55/75/13 56/76/13 54/74/13
f 58/78/14 57/77/14 53/79/14
f 53/79/14 54/80/14 58/78/14
f 49/81/15 57/77/15 58/78/15
f 58/78/15 51/82/15 49/81/15
f 60/84/16 59/83/16 54/85/16
f 54/85/16 56/86/16 60/84/16
f 61/88/17 50/87/17 52/89/17
f 52/89/17 62/90/17 61/88/17
f 63/92/18 49/91/18 50/93/18
f 50/93/18 64/94/18 63/92/18
f 55/96/19 53/95/19 63/97/19
f 63/97/19 64/98/19 55/96/19
f 51/99/20 59/83/20 60/84/20
f 60/84/20 52/100/20 51/99/20
f 56/102/21 55/101/21 61/103/21
f 61/103/21 62/104/21 56/102/21
f 54/106/22 59/105/22 51/107/22
f 51/107/22 53/108/22 54/106/22
f 51/107/22 49/109/22 53/108/22
f 49/109/22 63/110/22 53/108/22
f 55/108/23 53/106/23 57/111/23
f 57/111/23 61/110/23 55/108/23
f 57/111/23 49/107/23 61/110/23
f 49/107/23 50/109/23 61/110/23
f 52/113/24 60/112/24 56/114/24
f 56/114/24 55/115/24 52/113/24
f 55/115/24 50/116/24 52/113/24
f 55/115/24 64/117/24 50/116/24
f 58/118/25 54/114/25 56/115/25
f 56/115/25 62/117/25 58/118/25
f 62/117/25 51/113/25 58/118/25
f 62/117/25 52/116/25 51/113/25
f 59/120/26 58/119/26 54/121/26
f 58/123/27 59/122/27 51/124/27
f 57/126/28 49/125/28 63/127/28
f 53/129/29 57/128/29 63/130/29
f 64/132/30 50/131/30 61/133/30
f 55/135/31 64/134/31 61/136/31
f 58/138/13 57/137/13 63/139/13
f 63/139/13 59/140/13 58/138/13
f 63/139/13 60/141/13 59/140/13
f 63/139/13 64/142/13 60/141/13
f 64/142/13 61/143/13 60/141/13
f 61/143/13 62/144/13 60/141/13
f 52/146/32 60/145/32 62/147/32
f 60/149/33 56/148/33 62/150/33
