# Split from bedDouble.obj mat=metal
v -0.023 0.05 3.970513E-14 
v -0.128 0.05 3.537366E-14 
v -0.828 0.05 5.05338E-15 
v -0.933 0.05 1.082867E-15 
v -0.023 0.05 0.075 
v -0.023 0.05 1.125 
v -0.023 0.05 1.025 
v -0.128 0.05 0.075 
v -0.128 0.05 1.025 
v -0.128 0.05 1.125 
v -0.828 0.05 0.075 
v -0.828 0.05 1.125 
v -0.828 0.05 1.025 
v -0.933 0.05 0.075 
v -0.933 0.05 1.025 
v -0.933 0.05 1.125 
v -0.023 9.023893E-17 3.970513E-14 
v -0.128 7.399592E-15 3.537366E-14 
v -0.023 9.023893E-17 0.075 
v -0.128 7.399592E-15 0.075 
v -0.828 5.685052E-14 5.05338E-15 
v -0.828 5.685052E-14 0.075 
v -0.128 7.309353E-15 1.025 
v -0.128 7.309353E-15 1.125 
v -0.023 0 1.025 
v -0.023 0 1.125 
v -0.933 6.334772E-14 1.082867E-15 
v -0.933 6.334772E-14 0.075 
v -0.828 5.685052E-14 1.025 
v -0.828 5.685052E-14 1.125 
v -0.933 6.325748E-14 1.025 
v -0.933 6.325748E-14 1.125 
vt 44.29134 1.968504 
vt 0.9055118 1.968504 
vt 5.03937 1.968504 
vt 32.59843 1.968504 
vt 36.73228 1.968504 
vt -0.9055118 2.952756 
vt -0.9055118 44.29134 
vt -0.9055118 40.35433 
vt -5.03937 2.952756 
vt -5.03937 40.35433 
vt -5.03937 44.29134 
vt -32.59843 2.952756 
vt -32.59843 44.29134 
vt -32.59843 40.35433 
vt -36.73228 2.952756 
vt -36.73228 40.35433 
vt -36.73228 44.29134 
vt -44.29134 1.968504 
vt -0.9055118 1.968504 
vt -5.03937 1.968504 
vt -32.59843 1.968504 
vt -36.73228 1.968504 
vt -0.9055118 1.563194E-12 
vt -5.03937 1.392664E-12 
vt 1.59755E-12 -1.452349E-13 
vt 1.59755E-12 1.968504 
vt 2.952756 -1.452349E-13 
vt 2.952756 1.968504 
vt -1.524308E-12 1.968504 
vt -1.524308E-12 -5.857714E-13 
vt -2.952756 1.968504 
vt -2.952756 -5.857714E-13 
vt 40.35433 -2.215472E-13 
vt 40.35433 1.968504 
vt 44.29134 -2.215472E-13 
vt -40.35433 1.968504 
vt -40.35433 -7.844392E-14 
vt -44.29134 -7.844392E-14 
vt 0.9055118 3.552714E-15 
vt 5.03937 2.913225E-13 
vt -32.59843 1.98952E-13 
vt -36.73228 4.263256E-14 
vt -0.9055118 8.918183E-28 
vt -5.03937 2.877698E-13 
vt -40.35433 -1.151079E-13 
vt -44.29134 -1.151079E-13 
vt -32.59843 2.23821E-12 
vt -36.73228 2.494005E-12 
vt 32.59843 2.247313E-12 
vt 36.73228 2.499556E-12 
vt 1.536059E-12 -1.577405E-13 
vt 1.536059E-12 1.968504 
vt 2.952756 -1.577405E-13 
vt 32.59843 2.23821E-12 
vt 36.73228 2.494005E-12 
vt -36.73228 2.490452E-12 
vt -1.600009E-12 1.968504 
vt -1.600009E-12 -6.181722E-14 
vt -2.952756 -6.181722E-14 
vt 0.9055118 9.103829E-15 
vt 5.03937 2.968736E-13 
vt 40.35433 -1.612932E-13 
vt 44.29134 -1.612932E-13 
vt -0.9055118 3.552714E-15 
vt -5.03937 2.913225E-13 
vn -1 0 0 
vn 1 0 0 
vn 0 0 -1 
vn 0 -1 0 
vn 0 0 1 
f 18/24/4 17/23/4 19/6/4
f 19/6/4 20/9/4 18/24/4
f 2/26/1 18/25/1 20/27/1
f 20/27/1 8/28/1 2/26/1
f 21/30/2 3/29/2 11/31/2
f 11/31/2 22/32/2 21/30/2
f 9/34/1 23/33/1 24/35/1
f 24/35/1 10/1/1 9/34/1
f 25/37/2 7/36/2 6/18/2
f 6/18/2 26/38/2 25/37/2
f 1/2/3 17/39/3 18/40/3
f 18/40/3 2/3/3 1/2/3
f 27/42/4 21/41/4 22/12/4
f 22/12/4 28/15/4 27/42/4
f 24/44/5 26/43/5 6/19/5
f 6/19/5 10/20/5 24/44/5
f 29/45/2 13/36/2 12/18/2
f 12/18/2 30/46/2 29/45/2
f 28/48/5 22/47/5 11/21/5
f 11/21/5 14/22/5 28/48/5
f 13/4/3 29/49/3 31/50/3
f 31/50/3 15/5/3 13/4/3
f 4/52/1 27/51/1 28/53/1
f 28/53/1 14/28/1 4/52/1
f 3/4/3 21/54/3 27/55/3
f 27/55/3 4/5/3 3/4/3
f 23/10/4 25/8/4 26/7/4
f 26/7/4 24/11/4 23/10/4
f 32/56/5 30/47/5 12/21/5
f 12/21/5 16/22/5 32/56/5
f 17/58/2 1/57/2 5/31/2
f 5/31/2 19/59/2 17/58/2
f 7/2/3 25/60/3 23/61/3
f 23/61/3 9/3/3 7/2/3
f 31/16/4 29/14/4 30/13/4
f 30/13/4 32/17/4 31/16/4
f 15/34/1 31/62/1 32/63/1
f 32/63/1 16/1/1 15/34/1
f 20/65/5 19/64/5 5/19/5
f 5/19/5 8/20/5 20/65/5
f 18/24/4 17/23/4 19/6/4
f 19/6/4 20/9/4 18/24/4
f 2/26/1 18/25/1 20/27/1
f 20/27/1 8/28/1 2/26/1
f 21/30/2 3/29/2 11/31/2
f 11/31/2 22/32/2 21/30/2
f 9/34/1 23/33/1 24/35/1
f 24/35/1 10/1/1 9/34/1
f 25/37/2 7/36/2 6/18/2
f 6/18/2 26/38/2 25/37/2
f 1/2/3 17/39/3 18/40/3
f 18/40/3 2/3/3 1/2/3
f 27/42/4 21/41/4 22/12/4
f 22/12/4 28/15/4 27/42/4
f 24/44/5 26/43/5 6/19/5
f 6/19/5 10/20/5 24/44/5
f 29/45/2 13/36/2 12/18/2
f 12/18/2 30/46/2 29/45/2
f 28/48/5 22/47/5 11/21/5
f 11/21/5 14/22/5 28/48/5
f 13/4/3 29/49/3 31/50/3
f 31/50/3 15/5/3 13/4/3
f 4/52/1 27/51/1 28/53/1
f 28/53/1 14/28/1 4/52/1
f 3/4/3 21/54/3 27/55/3
f 27/55/3 4/5/3 3/4/3
f 23/10/4 25/8/4 26/7/4
f 26/7/4 24/11/4 23/10/4
f 32/56/5 30/47/5 12/21/5
f 12/21/5 16/22/5 32/56/5
f 17/58/2 1/57/2 5/31/2
f 5/31/2 19/59/2 17/58/2
f 7/2/3 25/60/3 23/61/3
f 23/61/3 9/3/3 7/2/3
f 31/16/4 29/14/4 30/13/4
f 30/13/4 32/17/4 31/16/4
f 15/34/1 31/62/1 32/63/1
f 32/63/1 16/1/1 15/34/1
f 20/65/5 19/64/5 5/19/5
f 5/19/5 8/20/5 20/65/5
