# Split from cabinetBedDrawerTable.obj mat=metal
v -0.1458 0.18335 0 
v -0.1458 0.20385 0 
v -0.1002 0.20385 0 
v -0.1002 0.18335 0 
v -0.10676 0.1854 -0.0123 
v -0.10676 0.2018 -0.0123 
v -0.13924 0.1854 -0.0123 
v -0.13924 0.2018 -0.0123 
vt 7.646549 0.676796 
vt 7.097731 0.5960873 
vt 7.646549 1.322465 
vt 7.097731 1.403174 
vt -4.000417 0.676796 
vt -4.000417 1.322465 
vt -3.451598 0.5960873 
vt -3.451598 1.403174 
vt 2.976378 -6.138162 
vt 4.771654 -6.138162 
vt 3.234646 -6.629094 
vt 4.513386 -6.629094 
vt 2.976378 6.466839 
vt 3.234646 6.95777 
vt 4.771654 6.466839 
vt 4.513386 6.95777 
vt 4.513386 0.676796 
vt 3.234646 0.676796 
vt 4.513386 1.322465 
vt 3.234646 1.322465 
vn 0 0 -1 
vn 0.8823529 0 -0.4705883 
vn -0.8823529 0 -0.4705883 
vn 0 0.986394 -0.164399 
vn 0 -0.986394 -0.164399 
f 4/2/2 5/1/2 6/3/2
f 6/3/2 3/4/2 4/2/2
f 8/6/3 7/5/3 1/7/3
f 1/7/3 2/8/3 8/6/3
f 2/10/4 3/9/4 6/11/4
f 6/11/4 8/12/4 2/10/4
f 5/14/5 4/13/5 1/15/5
f 1/15/5 7/16/5 5/14/5
f 5/18/1 7/17/1 8/19/1
f 8/19/1 6/20/1 5/18/1
