# Split from chairDesk.obj mat=carpet
v -0.302325 0.3161369 0.2586817 
v -0.302325 0.3120198 0.2617815 
v -0.302325 0.2473941 0.2678474 
v -0.302325 0.3072595 0.264394 
v -0.302325 0.3021747 0.2662993 
v -0.302325 0.2968698 0.2674584 
v -0.302325 0.2914536 0.2678474 
v -0.302325 0.364 0.2523 
v -0.03262499 0.364 0.2523 
v -0.302325 0.5680559 0.2697 
v -0.03262499 0.5680559 0.2697 
v -0.03262499 0.5680559 0.314299 
v -0.07216909 0.6076 0.2697 
v -0.07216909 0.6076 0.314299 
v -0.03262499 0.3161369 0.2586817 
v -0.03262499 0.2473941 0.2678474 
v -0.03262499 0.3120198 0.2617815 
v -0.03262499 0.3072595 0.264394 
v -0.03262499 0.3021747 0.2662993 
v -0.03262499 0.2968698 0.2674584 
v -0.03262499 0.2914536 0.2678474 
v -0.2627809 0.19 0 
v -0.07216909 0.19 0 
v -0.2627809 0.2335 0 
v -0.07216909 0.2335 0 
v -0.03262499 0.19 0.03954409 
v -0.03262499 0.2335 0.03954409 
v -0.03262499 0.2335 0.05328301 
v -0.03262499 0.2231351 0.05734534 
v -0.03262499 0.19 0.2678474 
v -0.03262499 0.2231351 0.260431 
v -0.2627809 0.6076 0.2697 
v -0.2627809 0.6076 0.314299 
v -0.302325 0.5680559 0.314299 
v -0.03262499 0.2473941 0.3085596 
v -0.302325 0.2473941 0.3085596 
v -0.03262499 0.364 0.296899 
v -0.302325 0.364 0.296899 
v -0.302325 0.3486034 0.2543529 
v -0.302325 0.3481746 0.2555209 
v -0.302325 0.3439379 0.2633649 
v -0.302325 0.3386236 0.2705228 
v -0.302325 0.3323409 0.2768477 
v -0.302325 0.3252188 0.2822099 
v -0.302325 0.3174034 0.286499 
v -0.302325 0.3090553 0.2896273 
v -0.302325 0.3003457 0.2915302 
v -0.302325 0.2923238 0.2921064 
v -0.302325 0.2473941 0.2921064 
v -0.03262499 0.3486034 0.2543529 
v -0.03262499 0.2335 0.2581111 
v -0.302325 0.2335 0.2581111 
v -0.302325 0.2335 0.03954409 
v -0.302325 0.2335 0.05328301 
v -0.03262499 0.2473941 0.2921064 
v -0.302325 0.19 0.2678474 
v -0.302325 0.2231351 0.260431 
v -0.302325 0.2231351 0.05734534 
v -0.302325 0.19 0.03954409 
v -0.03262499 0.3481746 0.2555209 
v -0.03262499 0.3439379 0.2633649 
v -0.03262499 0.3386236 0.2705228 
v -0.03262499 0.3323409 0.2768477 
v -0.03262499 0.3252188 0.2822099 
v -0.03262499 0.3174034 0.286499 
v -0.03262499 0.3090553 0.2896273 
v -0.03262499 0.3003457 0.2915302 
v -0.03262499 0.2923238 0.2921064 
vt 3.885108 4.966021 
vt 4.007144 4.803928 
vt 4.245963 2.259611 
vt 4.109999 4.616515 
vt 4.185013 4.416326 
vt 4.230647 4.207471 
vt 4.245963 3.994238 
vt 5.309055 7.134365 
vt -5.309055 7.134365 
vt 5.309055 15.19722 
vt -5.309055 15.19722 
vt -4.318898 6.770573 
vt -6.074765 6.770573 
vt -4.318898 8.972297 
vt -6.074765 8.972297 
vt -3.885108 4.966021 
vt -4.245963 2.259611 
vt -4.007144 4.803928 
vt -4.109999 4.616515 
vt -4.185013 4.416326 
vt -4.230647 4.207471 
vt -4.245963 3.994238 
vt 3.752201 0 
vt -3.752201 0 
vt 3.752201 1.712598 
vt -3.752201 1.712598 
vt 1.801009 0 
vt -0.4007148 0 
vt 1.801009 1.712598 
vt -0.4007148 1.712598 
vt 4.742359 1.712598 
vt 4.742359 -1.347015E-14 
vt 4.201456 1.712598 
vt 4.041522 1.304534 
vt -4.245963 -1.347015E-14 
vt -3.953976 1.304534 
vt 4.318898 8.972297 
vt 6.074765 8.972297 
vt 4.318898 6.770573 
vt 6.074765 6.770573 
vt 5.309055 1.666419 
vt -5.309055 1.666419 
vt 5.309055 6.280099 
vt -5.309055 6.280099 
vt 3.633858 6.850394 
vt 4.318898 14.88409 
vt 5.389726 6.850394 
vt 6.074765 14.88409 
vt 3.71468 6.244226 
vt 3.760668 6.227345 
vt 4.069484 6.060546 
vt 4.351292 5.851323 
vt 4.600306 5.603973 
vt 4.811412 5.323574 
vt 4.980278 5.015882 
vt 5.103435 4.687215 
vt 5.178355 4.34432 
vt 5.20104 4.028494 
vt 5.848804 2.259611 
vt 5.20104 2.259611 
vt 5.309055 1.678627 
vt -5.309055 1.678627 
vt 5.309055 4.408988 
vt -5.309055 4.408988 
vt 5.309055 5.698506 
vt -5.309055 5.698506 
vt 5.309055 6.310037 
vt -5.309055 6.310037 
vt -5.309055 -4.742359 
vt -5.309055 -4.201456 
vt -3.752201 -6.299212 
vt -5.309055 3.862642 
vt 5.309055 3.862642 
vt 3.752201 -6.299212 
vt 5.309055 -4.742359 
vt 5.309055 -4.201456 
vt 5.309055 5.848804 
vt 5.309055 5.20104 
vt -5.309055 5.848804 
vt 5.309055 4.245963 
vt -5.309055 4.245963 
vt -5.309055 5.20104 
vt -3.752201 4.318898 
vt -3.752201 6.074765 
vt 3.752201 4.318898 
vt 3.752201 6.074765 
vt 5.309055 -0.9274029 
vt -5.309055 -0.9274029 
vt 5.309055 0.4094082 
vt -5.309055 0.4094082 
vt 5.309055 0.8275695 
vt -5.309055 0.8275695 
vt -4.742359 1.712598 
vt -4.041522 1.304534 
vt -4.742359 0 
vt 4.245963 0 
vt -4.201456 1.712598 
vt 3.953976 1.304534 
vt -3.633858 6.850394 
vt -5.389726 6.850394 
vt -4.318898 14.88409 
vt -6.074765 14.88409 
vt -3.71468 6.244226 
vt -3.760668 6.227345 
vt -4.069484 6.060546 
vt -4.351292 5.851323 
vt -4.600306 5.603973 
vt -4.811412 5.323574 
vt -4.980278 5.015882 
vt -5.103435 4.687215 
vt -5.178355 4.34432 
vt -5.20104 4.028494 
vt -5.20104 2.259611 
vt -5.848804 2.259611 
vt 5.309055 7.283548 
vt -5.309055 7.283548 
vt 5.309055 15.3464 
vt -5.309055 15.3464 
vt -1.801009 0 
vt -1.801009 1.712598 
vt 0.4007148 0 
vt 0.4007148 1.712598 
vt 5.309055 14.88409 
vt -5.309055 14.88409 
vt 3.752201 16.44094 
vt -3.752201 16.44094 
vn 0 -1 0 
vn -1 0 0 
vn 1 0 0 
vn 0 0 -1 
vn 0 1 0 
vn 0 0.08496242 -0.9963841 
vn 0.7071068 0.7071068 0 
vn 0.7071068 0 -0.7071068 
vn -0.7071068 0.7071068 0 
vn 0 0.09950371 0.9950371 
vn 0 -0.1321637 -0.9912279 
vn 0 0.21842 0.9758549 
vn 0 -0.08496242 0.9963841 
vn -0.7071068 0 -0.7071068 
vn 0 0 1 
f 2/2/2 1/1/2 3/3/2
f 3/3/2 4/4/2 2/2/2
f 3/3/2 5/5/2 4/4/2
f 3/3/2 6/6/2 5/5/2
f 3/3/2 7/7/2 6/6/2
f 9/9/6 8/8/6 10/10/6
f 10/10/6 11/11/6 9/9/6
f 12/13/7 11/12/7 13/14/7
f 13/14/7 14/15/7 12/13/7
f 16/17/3 15/16/3 17/18/3
f 17/18/3 18/19/3 16/17/3
f 18/19/3 19/20/3 16/17/3
f 19/20/3 20/21/3 16/17/3
f 20/21/3 21/22/3 16/17/3
f 23/24/4 22/23/4 24/25/4
f 24/25/4 25/26/4 23/24/4
f 26/28/8 23/27/8 25/29/8
f 25/29/8 27/30/8 26/28/8
f 26/32/3 27/31/3 28/33/3
f 28/33/3 29/34/3 26/32/3
f 29/34/3 30/35/3 26/32/3
f 29/34/3 31/36/3 30/35/3
f 33/38/9 32/37/9 10/39/9
f 10/39/9 34/40/9 33/38/9
f 36/42/10 35/41/10 37/43/10
f 37/43/10 38/44/10 36/42/10
f 10/46/2 8/45/2 38/47/2
f 38/47/2 34/48/2 10/46/2
f 38/47/2 8/45/2 39/49/2
f 39/49/2 40/50/2 38/47/2
f 40/50/2 41/51/2 38/47/2
f 41/51/2 42/52/2 38/47/2
f 42/52/2 43/53/2 38/47/2
f 43/53/2 44/54/2 38/47/2
f 44/54/2 45/55/2 38/47/2
f 45/55/2 46/56/2 38/47/2
f 46/56/2 47/57/2 38/47/2
f 47/57/2 48/58/2 38/47/2
f 36/59/2 38/47/2 48/58/2
f 48/58/2 49/60/2 36/59/2
f 16/62/11 3/61/11 1/63/11
f 1/63/11 15/64/11 16/62/11
f 1/63/11 39/65/11 15/64/11
f 39/65/11 50/66/11 15/64/11
f 39/65/11 8/67/11 50/66/11
f 8/67/11 9/68/11 50/66/11
f 28/70/5 27/69/5 25/71/5
f 25/71/5 51/72/5 28/70/5
f 25/71/5 52/73/5 51/72/5
f 25/71/5 24/74/5 52/73/5
f 24/74/5 53/75/5 52/73/5
f 53/75/5 54/76/5 52/73/5
f 55/78/1 35/77/1 36/79/1
f 36/79/1 16/80/1 55/78/1
f 36/79/1 3/81/1 16/80/1
f 36/79/1 49/82/1 3/81/1
f 14/84/5 13/83/5 32/85/5
f 32/85/5 33/86/5 14/84/5
f 56/88/12 30/87/12 31/89/12
f 31/89/12 57/90/12 56/88/12
f 31/89/12 51/91/12 57/90/12
f 51/91/12 52/92/12 57/90/12
f 58/94/2 53/93/2 59/95/2
f 59/95/2 56/96/2 58/94/2
f 58/94/2 54/97/2 53/93/2
f 56/96/2 57/98/2 58/94/2
f 37/100/3 9/99/3 11/101/3
f 11/101/3 12/102/3 37/100/3
f 50/103/3 9/99/3 37/100/3
f 37/100/3 60/104/3 50/103/3
f 37/100/3 61/105/3 60/104/3
f 37/100/3 62/106/3 61/105/3
f 37/100/3 63/107/3 62/106/3
f 37/100/3 64/108/3 63/107/3
f 37/100/3 65/109/3 64/108/3
f 37/100/3 66/110/3 65/109/3
f 37/100/3 67/111/3 66/110/3
f 37/100/3 68/112/3 67/111/3
f 37/100/3 55/113/3 68/112/3
f 37/100/3 35/114/3 55/113/3
f 38/116/13 37/115/13 12/117/13
f 12/117/13 34/118/13 38/116/13
f 24/120/14 22/119/14 59/121/14
f 59/121/14 53/122/14 24/120/14
f 23/74/1 26/75/1 30/80/1
f 30/80/1 56/81/1 23/74/1
f 56/81/1 22/71/1 23/74/1
f 56/81/1 59/69/1 22/71/1
f 11/124/4 10/123/4 32/125/4
f 32/125/4 13/126/4 11/124/4
f 33/126/15 34/124/15 12/123/15
f 12/123/15 14/125/15 33/126/15
