# Split from dryer.obj mat=metalLight
v -0.39 0 0.35 
v -0.05350879 0.05350879 0.35 
v 0 0 0.35 
v 0 0.47 0.35 
v -0.05350879 0.4164912 0.35 
v -0.3364912 0.4164912 0.35 
v -0.3364912 0.05350879 0.35 
v -0.39 0.47 0.35 
v 0 0.06255291 0 
v -0.2286465 0.1002045 0 
v -0.39 0.06255291 0 
v -0.26 0.1131915 0 
v -0.2869239 0.1338509 0 
v -0.3075833 0.1607748 0 
v -0.3205703 0.1921283 0 
v -0.39 0.3889967 0 
v -0.195 0.09577481 0 
v -0.325 0.2257748 0 
v -0.3205703 0.2594213 0 
v -0.3075833 0.2907748 0 
v -0.2869239 0.3176987 0 
v -0.26 0.3383581 0 
v -0.2286465 0.3513452 0 
v -0.195 0.3557748 0 
v -0.1613535 0.1002045 0 
v 0 0.3889967 0 
v -0.1613535 0.3513452 0 
v -0.13 0.3383581 0 
v -0.1030761 0.3176987 0 
v -0.0824167 0.2907748 0 
v -0.06942964 0.2594213 0 
v -0.065 0.2257748 0 
v -0.06942964 0.1921283 0 
v -0.0824167 0.1607748 0 
v -0.1030761 0.1338509 0 
v -0.13 0.1131915 0 
v -0.39 0 0.02 
v 0 0 0.02 
v -0.39 0.06255291 0.02 
v 0 0.06255291 0.02 
v -0.07331756 0.07891756 0.33 
v -0.3166824 0.07891756 0.33 
v -0.07331756 0.3910824 0.33 
v -0.3166824 0.3910824 0.33 
v 0 0.47 0.04251085 
v -0.39 0.47 0.04251085 
v -0.2899195 0.2743897 -0.02 
v -0.325 0.2743897 -0.02 
v -0.325 0.2743897 -0.03 
v -0.335 0.2743897 -0.03 
v -0.325 0.2743897 0 
v -0.335 0.2743897 0 
v -0.065 0.3557748 -0.02 
v -0.065 0.3557748 0 
v -0.325 0.3557748 -0.02 
v -0.325 0.3557748 0 
v -0.065 0.09577481 -0.02 
v -0.065 0.09577481 0 
v -0.325 0.1771599 0 
v -0.2877377 0.1330371 0 
v -0.325 0.09577481 0 
v -0.1022623 0.1330371 0 
v -0.2877377 0.1771599 0 
v -0.2877377 0.185996 0 
v -0.335 0.185996 0 
v -0.335 0.1771599 0 
v -0.325 0.185996 0 
v -0.2877377 0.2655536 0 
v -0.325 0.2655536 0 
v -0.1022623 0.3185125 0 
v -0.2877377 0.3185125 0 
v -0.335 0.2655536 0 
v -0.2877377 0.2743897 0 
v -0.325 0.185996 -0.02116391 
v -0.335 0.185996 -0.02116391 
v -0.335 0.1771599 -0.03 
v -0.335 0.2655536 -0.02116391 
v -0.325 0.1771599 -0.03 
v -0.2899195 0.1771599 -0.02 
v -0.325 0.09577481 -0.02 
v -0.325 0.1771599 -0.02 
v -0.325 0.2655536 -0.02116391 
v -0.1152456 0.1460204 0.04 
v -0.2747544 0.1460204 0.04 
v -0.1152456 0.3055292 0.04 
v -0.2747544 0.183966 0.04 
v -0.2747544 0.1915651 0.04 
v -0.2747544 0.2599846 0.04 
v -0.2747544 0.2675836 0.04 
v -0.2747544 0.3055292 0.04 
vt -15.35433 0 
vt -2.106645 2.106645 
vt 0 0 
vt 0 18.50394 
vt -2.106645 16.39729 
vt -13.24769 16.39729 
vt -13.24769 2.106645 
vt -15.35433 18.50394 
vt 0 2.462713 
vt 9.00183 3.945057 
vt 15.35433 2.462713 
vt 10.23622 4.456358 
vt 11.29622 5.269722 
vt 12.10958 6.329717 
vt 12.62088 7.564108 
vt 15.35433 15.31483 
vt 7.677166 3.770662 
vt 12.79528 8.888772 
vt 12.62088 10.21344 
vt 12.10958 11.44783 
vt 11.29622 12.50782 
vt 10.23622 13.32119 
vt 9.00183 13.83249 
vt 7.677166 14.00688 
vt 6.352501 3.945057 
vt 0 15.31483 
vt 6.352501 13.83249 
vt 5.11811 13.32119 
vt 4.058115 12.50782 
vt 3.244752 11.44783 
vt 2.73345 10.21344 
vt 2.559055 8.888772 
vt 2.73345 7.564108 
vt 3.244752 6.329717 
vt 4.058115 5.269722 
vt 5.11811 4.456358 
vt 15.35433 0 
vt 0 0.7874016 
vt -15.35433 0.7874016 
vt 0 13.77953 
vt -15.35433 13.77953 
vt -2.886518 3.106991 
vt -12.46781 3.106991 
vt -2.886518 15.39695 
vt -12.46781 15.39695 
vt -2.106645 -6.867407 
vt -13.24769 -6.867407 
vt -2.886518 -5.594344 
vt -12.46781 -5.594344 
vt 7.199596 3.106991 
vt 7.199596 15.39695 
vt 8.307839 2.106645 
vt 8.307839 16.39729 
vt -2.886518 20.13433 
vt -12.46781 20.13433 
vt -2.106645 21.40739 
vt -13.24769 21.40739 
vt -18.00447 15.39695 
vt -18.00447 3.106991 
vt -19.11271 16.39729 
vt -19.11271 2.106645 
vt 0 1.673656 
vt 15.35433 1.673656 
vt 15.35433 13.77953 
vt -1.673656 18.50394 
vt -0.7874016 2.462713 
vt -0.7874016 0 
vt -13.77953 0 
vt -13.77953 18.50394 
vt 0.7874016 -6.127913E-14 
vt 0.7874016 2.462713 
vt 13.77953 -6.127913E-14 
vt 1.673656 18.50394 
vt 13.77953 18.50394 
vt -1.085503E-27 15.31483 
vt 3.7643E-14 2.462713 
vt 8.8551 -0.7874016 
vt 10.23622 -0.7874016 
vt 10.23622 -1.181102 
vt 10.62992 -1.181102 
vt 10.23622 -5.961192E-17 
vt 10.62992 -5.961192E-17 
vt 0 -0.7874016 
vt 10.23622 0 
vt 0.7874016 5.11811 
vt 0.7874016 -5.11811 
vt 0 5.11811 
vt 0 -5.11811 
vt -10.23622 -1.913972 
vt -8.769199 -3.651089 
vt -10.23622 -5.11811 
vt -1.467021 -3.651089 
vt -8.769199 -1.913972 
vt -8.769199 -1.566094 
vt -10.62992 -1.566094 
vt -10.62992 -1.913972 
vt -10.23622 -1.566094 
vt -8.769199 1.566094 
vt -10.23622 1.566094 
vt -1.467021 3.651089 
vt -8.769199 3.651089 
vt -10.62992 1.913972 
vt -10.62992 1.566094 
vt -10.23622 1.913972 
vt -8.769199 1.913972 
vt -10.23622 5.11811 
vt 10.23622 -0.8332246 
vt 10.23622 3.603455E-31 
vt 10.62992 -0.8332246 
vt 10.62992 3.603455E-31 
vt -0.7874016 1.913972 
vt -0.7874016 5.11811 
vt 5.542233E-13 1.913972 
vt 5.542233E-13 5.11811 
vt -1.181102 1.913972 
vt -0.8332246 -1.566094 
vt -1.181102 -1.913972 
vt 3.783011E-13 -1.913972 
vt 3.783011E-13 -1.566094 
vt -0.8332246 1.566094 
vt 3.783011E-13 1.913972 
vt 3.783011E-13 1.566094 
vt 10.16786 -1.913972 
vt 8.73172 -1.913972 
vt 10.16786 1.913972 
vt 8.73172 1.913972 
vt -0.7874016 -5.11811 
vt -0.7874016 -1.913972 
vt 1.847411E-13 -5.11811 
vt 1.847411E-13 -1.913972 
vt 10.62992 -1.913972 
vt 10.23622 -1.913972 
vt 10.62992 1.913972 
vt 10.23622 1.913972 
vt 1.745813E-13 -1.566094 
vt 1.745813E-13 1.566094 
vt -10.23622 -0.8332246 
vt -10.62992 -0.8332246 
vt -10.23622 7.229631E-28 
vt -10.62992 7.229631E-28 
vt -8.8551 -0.7874016 
vt -10.23622 -1.181102 
vt -10.23622 -0.7874016 
vt -10.23622 5.961192E-17 
vt -10.62992 -1.181102 
vt -10.62992 5.961192E-17 
vt 8.8551 1.913972 
vt 10.23622 5.11811 
vt 8.8551 -1.913972 
vt 10.23622 -5.11811 
vt -10.23622 0 
vt -1.978173 -3.139937 
vt -8.258047 -3.139937 
vt -1.978173 3.139937 
vt -8.258047 -1.646016 
vt -8.258047 -1.346841 
vt -8.258047 1.346841 
vt -8.258047 1.646016 
vt -8.258047 3.139937 
vt -2.707283 -3.651089 
vt -2.707283 -1.913972 
vt -1.051601 -3.139937 
vt -1.051601 -1.646016 
vt -2.707283 -1.566094 
vt -1.051601 -1.346841 
vt -2.707283 1.566094 
vt -1.051601 1.346841 
vt -2.707283 1.913972 
vt -1.051601 1.646016 
vt -2.707283 3.651089 
vt -1.051601 3.139937 
vt -1.467021 1.127187 
vt -1.978173 -0.5284944 
vt -8.769199 1.127187 
vt -8.258047 -0.5284944 
vt -0.452908 3.651089 
vt -0.452908 -3.651089 
vt -2.10859 3.139937 
vt -2.10859 -3.139937 
vt -1.467021 -1.127187 
vt -8.769199 -1.127187 
vt -1.978173 0.5284944 
vt -8.258047 0.5284944 
vn 0 0 1 
vn 0 0 -1 
vn 0 -1 0 
vn 0 0.6185091 0.7857777 
vn -0.7104954 0 0.7037019 
vn 0 -0.6185091 0.7857777 
vn 0.7104954 0 0.7037019 
vn 0 1 0 
vn 1 0 0 
vn -1 0 0 
vn 0.2741385 0 -0.9616902 
vn -0.9511509 0 0.3087263 
vn 0 0.9511509 0.3087263 
vn 0.9511509 0 0.3087263 
vn 0 -0.9511509 0.3087263 
f 2/2/1 1/1/1 3/3/1
f 3/3/1 4/4/1 2/2/1
f 4/4/1 5/5/1 2/2/1
f 4/4/1 6/6/1 5/5/1
f 1/1/1 2/2/1 7/7/1
f 7/7/1 8/8/1 1/1/1
f 7/7/1 6/6/1 8/8/1
f 6/6/1 4/4/1 8/8/1
f 10/10/2 9/9/2 11/11/2
f 11/11/2 12/12/2 10/10/2
f 11/11/2 13/13/2 12/12/2
f 11/11/2 14/14/2 13/13/2
f 11/11/2 15/15/2 14/14/2
f 11/11/2 16/16/2 15/15/2
f 10/10/2 17/17/2 9/9/2
f 16/16/2 18/18/2 15/15/2
f 16/16/2 19/19/2 18/18/2
f 16/16/2 20/20/2 19/19/2
f 16/16/2 21/21/2 20/20/2
f 16/16/2 22/22/2 21/21/2
f 16/16/2 23/23/2 22/22/2
f 16/16/2 24/24/2 23/23/2
f 9/9/2 17/17/2 25/25/2
f 24/24/2 16/16/2 26/26/2
f 27/27/2 24/24/2 26/26/2
f 28/28/2 27/27/2 26/26/2
f 29/29/2 28/28/2 26/26/2
f 30/30/2 29/29/2 26/26/2
f 31/31/2 30/30/2 26/26/2
f 32/32/2 31/31/2 26/26/2
f 33/33/2 32/32/2 26/26/2
f 33/33/2 26/26/2 9/9/2
f 9/9/2 34/34/2 33/33/2
f 9/9/2 35/35/2 34/34/2
f 9/9/2 36/36/2 35/35/2
f 9/9/2 25/25/2 36/36/2
f 38/3/2 37/37/2 39/11/2
f 39/11/2 40/9/2 38/3/2
f 9/3/3 40/38/3 39/39/3
f 39/39/3 11/1/3 9/3/3
f 38/38/3 3/40/3 1/41/3
f 1/41/3 37/39/3 38/38/3
f 42/43/1 41/42/1 43/44/1
f 43/44/1 44/45/1 42/43/1
f 7/47/4 2/46/4 41/48/4
f 41/48/4 42/49/4 7/47/4
f 43/51/5 41/50/5 2/52/5
f 2/52/5 5/53/5 43/51/5
f 44/55/6 43/54/6 5/56/6
f 5/56/6 6/57/6 44/55/6
f 42/59/7 44/58/7 6/60/7
f 6/60/7 7/61/7 42/59/7
f 4/40/8 45/62/8 46/63/8
f 46/63/8 8/64/8 4/40/8
f 9/9/9 26/26/9 45/65/9
f 45/65/9 40/66/9 9/9/9
f 45/65/9 38/67/9 40/66/9
f 45/65/9 3/68/9 38/67/9
f 45/65/9 4/69/9 3/68/9
f 39/71/10 37/70/10 1/72/10
f 1/72/10 46/73/10 39/71/10
f 1/72/10 8/74/10 46/73/10
f 39/71/10 46/73/10 16/75/10
f 16/75/10 11/76/10 39/71/10
f 2/2/1 1/1/1 3/3/1
f 3/3/1 4/4/1 2/2/1
f 4/4/1 5/5/1 2/2/1
f 4/4/1 6/6/1 5/5/1
f 1/1/1 2/2/1 7/7/1
f 7/7/1 8/8/1 1/1/1
f 7/7/1 6/6/1 8/8/1
f 6/6/1 4/4/1 8/8/1
f 10/10/2 9/9/2 11/11/2
f 11/11/2 12/12/2 10/10/2
f 11/11/2 13/13/2 12/12/2
f 11/11/2 14/14/2 13/13/2
f 11/11/2 15/15/2 14/14/2
f 11/11/2 16/16/2 15/15/2
f 10/10/2 17/17/2 9/9/2
f 16/16/2 18/18/2 15/15/2
f 16/16/2 19/19/2 18/18/2
f 16/16/2 20/20/2 19/19/2
f 16/16/2 21/21/2 20/20/2
f 16/16/2 22/22/2 21/21/2
f 16/16/2 23/23/2 22/22/2
f 16/16/2 24/24/2 23/23/2
f 9/9/2 17/17/2 25/25/2
f 24/24/2 16/16/2 26/26/2
f 27/27/2 24/24/2 26/26/2
f 28/28/2 27/27/2 26/26/2
f 29/29/2 28/28/2 26/26/2
f 30/30/2 29/29/2 26/26/2
f 31/31/2 30/30/2 26/26/2
f 32/32/2 31/31/2 26/26/2
f 33/33/2 32/32/2 26/26/2
f 33/33/2 26/26/2 9/9/2
f 9/9/2 34/34/2 33/33/2
f 9/9/2 35/35/2 34/34/2
f 9/9/2 36/36/2 35/35/2
f 9/9/2 25/25/2 36/36/2
f 38/3/2 37/37/2 39/11/2
f 39/11/2 40/9/2 38/3/2
f 9/3/3 40/38/3 39/39/3
f 39/39/3 11/1/3 9/3/3
f 38/38/3 3/40/3 1/41/3
f 1/41/3 37/39/3 38/38/3
f 42/43/1 41/42/1 43/44/1
f 43/44/1 44/45/1 42/43/1
f 7/47/4 2/46/4 41/48/4
f 41/48/4 42/49/4 7/47/4
f 43/51/5 41/50/5 2/52/5
f 2/52/5 5/53/5 43/51/5
f 44/55/6 43/54/6 5/56/6
f 5/56/6 6/57/6 44/55/6
f 42/59/7 44/58/7 6/60/7
f 6/60/7 7/61/7 42/59/7
f 4/40/8 45/62/8 46/63/8
f 46/63/8 8/64/8 4/40/8
f 9/9/9 26/26/9 45/65/9
f 45/65/9 40/66/9 9/9/9
f 45/65/9 38/67/9 40/66/9
f 45/65/9 3/68/9 38/67/9
f 45/65/9 4/69/9 3/68/9
f 39/71/10 37/70/10 1/72/10
f 1/72/10 46/73/10 39/71/10
f 1/72/10 8/74/10 46/73/10
f 39/71/10 46/73/10 16/75/10
f 16/75/10 11/76/10 39/71/10
f 48/78/8 47/77/8 49/79/8
f 49/79/8 50/80/8 48/78/8
f 50/80/8 51/81/8 48/78/8
f 50/80/8 52/82/8 51/81/8
f 54/3/8 53/83/8 55/78/8
f 55/78/8 56/84/8 54/3/8
f 57/86/9 53/85/9 54/87/9
f 54/87/9 58/88/9 57/86/9
f 60/90/1 59/89/1 61/91/1
f 61/91/1 62/92/1 60/90/1
f 60/90/1 63/93/1 59/89/1
f 63/93/1 64/94/1 59/89/1
f 59/89/1 64/94/1 65/95/1
f 65/95/1 66/96/1 59/89/1
f 64/94/1 67/97/1 65/95/1
f 64/94/1 68/98/1 67/97/1
f 68/98/1 69/99/1 67/97/1
f 62/92/1 61/91/1 58/88/1
f 58/88/1 54/87/1 62/92/1
f 54/87/1 70/100/1 62/92/1
f 54/87/1 71/101/1 70/100/1
f 69/99/1 68/98/1 52/102/1
f 52/102/1 72/103/1 69/99/1
f 68/98/1 51/104/1 52/102/1
f 68/98/1 73/105/1 51/104/1
f 73/105/1 56/106/1 51/104/1
f 73/105/1 71/101/1 56/106/1
f 71/101/1 54/87/1 56/106/1
f 67/108/8 74/107/8 75/109/8
f 75/109/8 65/110/8 67/108/8
f 55/112/10 48/111/10 51/113/10
f 51/113/10 56/114/10 55/112/10
f 75/116/10 50/115/10 76/117/10
f 76/117/10 66/118/10 75/116/10
f 66/118/10 65/119/10 75/116/10
f 50/115/10 75/116/10 77/120/10
f 77/120/10 52/121/10 50/115/10
f 77/120/10 72/122/10 52/121/10
f 79/124/11 78/123/11 49/125/11
f 49/125/11 47/126/11 79/124/11
f 81/128/10 80/127/10 61/129/10
f 61/129/10 59/130/10 81/128/10
f 78/132/2 76/131/2 50/133/2
f 50/133/2 49/134/2 78/132/2
f 77/103/1 75/95/1 74/97/1
f 74/97/1 82/99/1 77/103/1
f 82/120/10 74/116/10 67/135/10
f 67/135/10 69/136/10 82/120/10
f 77/138/3 82/137/3 69/139/3
f 69/139/3 72/140/3 77/138/3
f 78/142/3 79/141/3 81/143/3
f 81/143/3 59/144/3 78/142/3
f 59/144/3 76/145/3 78/142/3
f 59/144/3 66/146/3 76/145/3
f 47/147/2 48/134/2 55/148/2
f 47/147/2 55/148/2 53/87/2
f 79/149/2 47/147/2 53/87/2
f 79/149/2 53/87/2 57/88/2
f 81/132/2 79/149/2 57/88/2
f 57/88/2 80/150/2 81/132/2
f 57/83/3 58/3/3 61/151/3
f 61/151/3 80/143/3 57/83/3
f 84/153/1 83/152/1 85/154/1
f 85/154/1 86/155/1 84/153/1
f 85/154/1 87/156/1 86/155/1
f 85/154/1 88/157/1 87/156/1
f 85/154/1 89/158/1 88/157/1
f 85/154/1 90/159/1 89/158/1
f 63/161/12 60/160/12 84/162/12
f 84/162/12 86/163/12 63/161/12
f 64/164/12 63/161/12 86/163/12
f 86/163/12 87/165/12 64/164/12
f 68/166/12 64/164/12 87/165/12
f 87/165/12 88/167/12 68/166/12
f 73/168/12 68/166/12 88/167/12
f 88/167/12 89/169/12 73/168/12
f 71/170/12 73/168/12 89/169/12
f 89/169/12 90/171/12 71/170/12
f 85/173/13 70/172/13 71/174/13
f 71/174/13 90/175/13 85/173/13
f 62/177/14 70/176/14 85/178/14
f 85/178/14 83/179/14 62/177/14
f 60/181/15 62/180/15 83/182/15
f 83/182/15 84/183/15 60/181/15
