# Split from kitchenStove.obj mat=carpetWhite
v -0.0302275 0.42 0.05 
v -0.3997725 0.42 0.05 
v -0.3997725 0.42 0.4079006 
v -0.0302275 0.42 0.4079006 
v -0.2537613 0.43 0.3206419 
v -0.2757612 0.43 0.358747 
v -0.2647613 0.43 0.1867587 
v -0.2812612 0.43 0.2153375 
v -0.3197612 0.43 0.358747 
v -0.098125 0.425 0.08575 
v -0.09125 0.425 0.09765784 
v -0.0775 0.425 0.09765784 
v -0.3417613 0.43 0.3206419 
v -0.16 0.425 0.07384215 
v -0.166875 0.425 0.08575 
v -0.3197612 0.43 0.2825368 
v -0.070625 0.425 0.08575 
v -0.263125 0.425 0.08575 
v -0.27 0.425 0.09765784 
v -0.09125 0.425 0.07384215 
v -0.33875 0.425 0.09765784 
v -0.3525 0.425 0.09765784 
v -0.0775 0.425 0.07384215 
v -0.14625 0.425 0.07384215 
v -0.139375 0.425 0.08575 
v -0.226 0.425 0.08575 
v -0.2205 0.425 0.09527628 
v -0.2757612 0.43 0.2825368 
v -0.16 0.425 0.09765784 
v -0.14625 0.425 0.09765784 
v -0.1542387 0.43 0.2825368 
v -0.1762387 0.43 0.3206419 
v -0.08823875 0.43 0.3206419 
v -0.1102388 0.43 0.358747 
v -0.1542387 0.43 0.358747 
v -0.3525 0.425 0.07384215 
v -0.359375 0.425 0.08575 
v -0.28375 0.425 0.09765784 
v -0.2095 0.425 0.07622372 
v -0.204 0.425 0.08575 
v -0.33875 0.425 0.07384215 
v -0.2812612 0.43 0.1581798 
v -0.3142612 0.43 0.1581798 
v -0.3307613 0.43 0.1867587 
v -0.2095 0.425 0.09527628 
v -0.27 0.425 0.07384215 
v -0.1652388 0.43 0.1867587 
v -0.1487388 0.43 0.2153375 
v -0.3142612 0.43 0.2153375 
v -0.09923875 0.43 0.1867587 
v -0.1157387 0.43 0.2153375 
v -0.28375 0.425 0.07384215 
v -0.331875 0.425 0.08575 
v -0.2205 0.425 0.07622372 
v -0.1157387 0.43 0.1581798 
v -0.1102388 0.43 0.2825368 
v -0.290625 0.425 0.08575 
v -0.1487388 0.43 0.1581798 
v -0.3722725 0.43 0.3793336 
v -0.3722725 0.43 0.2619503 
v -0.22325 0.43 0.2619503 
v -0.0577275 0.43 0.2454503 
v -0.20675 0.43 0.2454503 
v -0.3722725 0.43 0.128067 
v -0.22325 0.43 0.128067 
v -0.20675 0.43 0.2619503 
v -0.0577275 0.43 0.2619503 
v -0.0577275 0.43 0.3793336 
v -0.20675 0.43 0.3793336 
v -0.3722725 0.43 0.2454503 
v -0.22325 0.43 0.3793336 
v -0.22325 0.43 0.2454503 
v -0.0577275 0.43 0.128067 
v -0.20675 0.43 0.128067 
v -0.0412275 0.425 0.3958336 
v -0.3887725 0.425 0.3958336 
v -0.3887725 0.425 0.111567 
v -0.0412275 0.425 0.111567 
v -0.3887725 0.425 0.061 
v -0.0412275 0.425 0.061 
vt 9.990601 12.6237 
vt 10.85674 11.1235 
vt 12.58903 11.1235 
vt 13.45517 12.6237 
vt 10.85674 14.1239 
vt 12.58903 14.1239 
vt 10.42367 7.352704 
vt 11.07328 6.227552 
vt 12.37249 6.227552 
vt 13.0221 7.352704 
vt 11.07328 8.477855 
vt 12.37249 8.477855 
vt 2.272736 5.042009 
vt 2.272736 10.313 
vt 2.272736 9.663398 
vt 8.139764 10.313 
vt 8.139764 9.663398 
vt 8.789371 5.042009 
vt 8.139764 5.042009 
vt 14.6564 5.042009 
vt 14.6564 9.663398 
vt 2.272736 14.93439 
vt 8.139764 14.93439 
vt 8.789371 14.93439 
vt 8.789371 10.313 
vt 8.789371 9.663398 
vt 14.6564 10.313 
vt 14.6564 14.93439 
vt 3.907037 7.352704 
vt 4.556643 6.227552 
vt 5.855856 6.227552 
vt 6.505463 7.352704 
vt 4.556643 8.477855 
vt 5.855856 8.477855 
vt 3.473967 12.6237 
vt 4.340108 11.1235 
vt 6.072392 11.1235 
vt 6.938533 12.6237 
vt 4.340108 14.1239 
vt 6.072392 14.1239 
vt 4.392403 -7.010205 
vt 15.584 -7.010205 
vt 2.401575 -7.010205 
vt 1.968504 -7.485915 
vt 16.05908 -7.485915 
vt -1.190059 -8.506286 
vt -15.73907 -8.506286 
vt -1.62313 -7.992038 
vt -15.306 -7.992038 
vt -1.968504 7.925801 
vt -16.05908 7.925801 
vt -2.401575 8.401511 
vt -15.584 8.401511 
vt -4.392403 8.401511 
vt 1.62313 4.392403 
vt 3.051181 2.907171 
vt 1.62313 2.401575 
vt 15.306 2.401575 
vt 2.780512 3.375984 
vt 3.59252 2.907171 
vt 5.757874 2.907171 
vt 3.863189 3.375984 
vt 5.487205 3.375984 
vt 6.299212 2.907171 
vt 8.248032 3.000934 
vt 6.569882 3.375984 
vt 8.031496 3.375984 
vt 8.681103 3.000934 
vt 10.62992 2.907171 
vt 8.897637 3.375984 
vt 10.35925 3.375984 
vt 11.17126 2.907171 
vt 11.44193 3.375984 
vt 13.33661 2.907171 
vt 13.06594 3.375984 
vt 13.87795 2.907171 
vt 14.14862 3.375984 
vt 15.306 4.392403 
vt 8.248032 3.751035 
vt 6.299212 3.844797 
vt 5.757874 3.844797 
vt 3.59252 3.844797 
vt 3.051181 3.844797 
vt 8.681103 3.751035 
vt 10.62992 3.844797 
vt 11.17126 3.844797 
vt 13.33661 3.844797 
vt 13.87795 3.844797 
vt 1.190059 8.634471 
vt 1.62313 9.110182 
vt 15.73907 8.634471 
vt 15.306 9.110182 
vn 0 1 0 
vn -0.413803 0.9103665 0 
vn 0 0.9238343 0.3827927 
vn 0.413803 0.9103665 0 
vn 0 0.9103665 -0.413803 
f 76/42/2 77/41/2 79/43/2
f 79/43/2 2/44/2 76/42/2
f 2/44/2 3/45/2 76/42/2
f 3/47/3 4/46/3 75/48/3
f 75/48/3 76/49/3 3/47/3
f 42/8/1 72/26/1 65/18/1
f 65/18/1 64/20/1 42/8/1
f 42/8/1 7/7/1 72/26/1
f 64/20/1 43/9/1 42/8/1
f 64/20/1 44/10/1 43/9/1
f 72/26/1 7/7/1 8/11/1
f 8/11/1 70/21/1 72/26/1
f 44/10/1 64/20/1 70/21/1
f 8/11/1 49/12/1 70/21/1
f 49/12/1 44/10/1 70/21/1
f 4/51/4 1/50/4 80/52/4
f 80/52/4 75/53/4 4/51/4
f 80/52/4 78/54/4 75/53/4
f 23/56/1 78/55/1 80/57/1
f 80/57/1 79/58/1 23/56/1
f 23/56/1 17/59/1 78/55/1
f 79/58/1 20/60/1 23/56/1
f 79/58/1 24/61/1 20/60/1
f 24/61/1 10/62/1 20/60/1
f 24/61/1 25/63/1 10/62/1
f 79/58/1 14/64/1 24/61/1
f 79/58/1 39/65/1 14/64/1
f 39/65/1 15/66/1 14/64/1
f 39/65/1 40/67/1 15/66/1
f 79/58/1 54/68/1 39/65/1
f 79/58/1 46/69/1 54/68/1
f 46/69/1 26/70/1 54/68/1
f 46/69/1 18/71/1 26/70/1
f 79/58/1 52/72/1 46/69/1
f 79/58/1 57/73/1 52/72/1
f 79/58/1 41/74/1 57/73/1
f 41/74/1 53/75/1 57/73/1
f 79/58/1 36/76/1 41/74/1
f 79/58/1 37/77/1 36/76/1
f 79/58/1 77/78/1 37/77/1
f 15/66/1 40/67/1 45/79/1
f 29/80/1 45/79/1 77/78/1
f 29/80/1 15/66/1 45/79/1
f 30/81/1 29/80/1 77/78/1
f 11/82/1 30/81/1 77/78/1
f 12/83/1 11/82/1 77/78/1
f 12/83/1 77/78/1 78/55/1
f 78/55/1 17/59/1 12/83/1
f 11/82/1 10/62/1 30/81/1
f 10/62/1 25/63/1 30/81/1
f 45/79/1 27/84/1 77/78/1
f 27/84/1 19/85/1 77/78/1
f 27/84/1 26/70/1 19/85/1
f 26/70/1 18/71/1 19/85/1
f 19/85/1 38/86/1 77/78/1
f 38/86/1 57/73/1 77/78/1
f 57/73/1 21/87/1 77/78/1
f 57/73/1 53/75/1 21/87/1
f 21/87/1 22/88/1 77/78/1
f 22/88/1 37/77/1 77/78/1
f 55/30/1 62/15/1 73/13/1
f 73/13/1 74/19/1 55/30/1
f 55/30/1 50/29/1 62/15/1
f 74/19/1 58/31/1 55/30/1
f 74/19/1 47/32/1 58/31/1
f 62/15/1 50/29/1 51/33/1
f 51/33/1 63/17/1 62/15/1
f 47/32/1 74/19/1 63/17/1
f 51/33/1 48/34/1 63/17/1
f 48/34/1 47/32/1 63/17/1
f 80/90/5 1/89/5 2/91/5
f 2/91/5 79/92/5 80/90/5
f 33/35/1 68/22/1 67/14/1
f 67/14/1 56/36/1 33/35/1
f 67/14/1 66/16/1 56/36/1
f 66/16/1 31/37/1 56/36/1
f 66/16/1 32/38/1 31/37/1
f 68/22/1 33/35/1 34/39/1
f 34/39/1 69/23/1 68/22/1
f 32/38/1 66/16/1 69/23/1
f 34/39/1 35/40/1 69/23/1
f 35/40/1 32/38/1 69/23/1
f 5/1/1 71/24/1 61/25/1
f 61/25/1 28/2/1 5/1/1
f 61/25/1 60/27/1 28/2/1
f 60/27/1 16/3/1 28/2/1
f 60/27/1 13/4/1 16/3/1
f 71/24/1 5/1/1 6/5/1
f 6/5/1 59/28/1 71/24/1
f 13/4/1 60/27/1 59/28/1
f 6/5/1 9/6/1 59/28/1
f 9/6/1 13/4/1 59/28/1
f 76/42/2 77/41/2 79/43/2
f 79/43/2 2/44/2 76/42/2
f 2/44/2 3/45/2 76/42/2
f 3/47/3 4/46/3 75/48/3
f 75/48/3 76/49/3 3/47/3
f 42/8/1 72/26/1 65/18/1
f 65/18/1 64/20/1 42/8/1
f 42/8/1 7/7/1 72/26/1
f 64/20/1 43/9/1 42/8/1
f 64/20/1 44/10/1 43/9/1
f 72/26/1 7/7/1 8/11/1
f 8/11/1 70/21/1 72/26/1
f 44/10/1 64/20/1 70/21/1
f 8/11/1 49/12/1 70/21/1
f 49/12/1 44/10/1 70/21/1
f 4/51/4 1/50/4 80/52/4
f 80/52/4 75/53/4 4/51/4
f 80/52/4 78/54/4 75/53/4
f 23/56/1 78/55/1 80/57/1
f 80/57/1 79/58/1 23/56/1
f 23/56/1 17/59/1 78/55/1
f 79/58/1 20/60/1 23/56/1
f 79/58/1 24/61/1 20/60/1
f 24/61/1 10/62/1 20/60/1
f 24/61/1 25/63/1 10/62/1
f 79/58/1 14/64/1 24/61/1
f 79/58/1 39/65/1 14/64/1
f 39/65/1 15/66/1 14/64/1
f 39/65/1 40/67/1 15/66/1
f 79/58/1 54/68/1 39/65/1
f 79/58/1 46/69/1 54/68/1
f 46/69/1 26/70/1 54/68/1
f 46/69/1 18/71/1 26/70/1
f 79/58/1 52/72/1 46/69/1
f 79/58/1 57/73/1 52/72/1
f 79/58/1 41/74/1 57/73/1
f 41/74/1 53/75/1 57/73/1
f 79/58/1 36/76/1 41/74/1
f 79/58/1 37/77/1 36/76/1
f 79/58/1 77/78/1 37/77/1
f 15/66/1 40/67/1 45/79/1
f 29/80/1 45/79/1 77/78/1
f 29/80/1 15/66/1 45/79/1
f 30/81/1 29/80/1 77/78/1
f 11/82/1 30/81/1 77/78/1
f 12/83/1 11/82/1 77/78/1
f 12/83/1 77/78/1 78/55/1
f 78/55/1 17/59/1 12/83/1
f 11/82/1 10/62/1 30/81/1
f 10/62/1 25/63/1 30/81/1
f 45/79/1 27/84/1 77/78/1
f 27/84/1 19/85/1 77/78/1
f 27/84/1 26/70/1 19/85/1
f 26/70/1 18/71/1 19/85/1
f 19/85/1 38/86/1 77/78/1
f 38/86/1 57/73/1 77/78/1
f 57/73/1 21/87/1 77/78/1
f 57/73/1 53/75/1 21/87/1
f 21/87/1 22/88/1 77/78/1
f 22/88/1 37/77/1 77/78/1
f 55/30/1 62/15/1 73/13/1
f 73/13/1 74/19/1 55/30/1
f 55/30/1 50/29/1 62/15/1
f 74/19/1 58/31/1 55/30/1
f 74/19/1 47/32/1 58/31/1
f 62/15/1 50/29/1 51/33/1
f 51/33/1 63/17/1 62/15/1
f 47/32/1 74/19/1 63/17/1
f 51/33/1 48/34/1 63/17/1
f 48/34/1 47/32/1 63/17/1
f 80/90/5 1/89/5 2/91/5
f 2/91/5 79/92/5 80/90/5
f 33/35/1 68/22/1 67/14/1
f 67/14/1 56/36/1 33/35/1
f 67/14/1 66/16/1 56/36/1
f 66/16/1 31/37/1 56/36/1
f 66/16/1 32/38/1 31/37/1
f 68/22/1 33/35/1 34/39/1
f 34/39/1 69/23/1 68/22/1
f 32/38/1 66/16/1 69/23/1
f 34/39/1 35/40/1 69/23/1
f 35/40/1 32/38/1 69/23/1
f 5/1/1 71/24/1 61/25/1
f 61/25/1 28/2/1 5/1/1
f 61/25/1 60/27/1 28/2/1
f 60/27/1 16/3/1 28/2/1
f 60/27/1 13/4/1 16/3/1
f 71/24/1 5/1/1 6/5/1
f 6/5/1 59/28/1 71/24/1
f 13/4/1 60/27/1 59/28/1
f 6/5/1 9/6/1 59/28/1
f 9/6/1 13/4/1 59/28/1
