# Split from kitchenCabinetDrawer.obj mat=wood
v 0 0.39 0.45 
v -0.43 0.39 0.45 
v 0 0.39 0.02 
v -0.43 0.39 0.02 
v 0 0 0.45 
v 0 0 0.04 
v -0.43 0 0.45 
v -0.43 0 0.04 
v -0.02684418 0.277543 0.04 
v -0.02684418 0.277543 0.4 
v -0.4031558 0.277543 0.04 
v -0.4031558 0.277543 0.4 
v -0.02684418 0.08508605 0.02 
v -0.02684418 0.08508605 0.4 
v -0.4031558 0.08508605 0.02 
v -0.4031558 0.08508605 0.4 
v -0.02684418 0.3631558 0.4 
v -0.02684418 0.3631558 0.02 
v -0.4031558 0.3631558 0.4 
v -0.4031558 0.3631558 0.02 
v 0 0.05824186 0.04 
v 0 0.05824186 0.02 
v -0.43 0.05824186 0.04 
v -0.43 0.05824186 0.02 
v -0.4031558 0.277543 0.02 
v -0.4031558 0.2506988 0.04 
v -0.4031558 0.2506988 0.4 
v -0.02684418 0.2506988 0.4 
v -0.02684418 0.2506988 0.04 
v -0.02684418 0.277543 0.02 
v -0.02684418 0.08508605 0.04 
v -0.4031558 0.08508605 0.04 
v -0.02684418 0.08508605 0.02 
v -0.4031558 0.08508605 0.02 
v -0.02684418 0.277543 0.02 
v -0.4031558 0.277543 0.02 
v -0.04718611 0.105428 0.02 
v -0.3578139 0.2172011 0.02 
v -0.3828139 0.105428 0.02 
v -0.3828139 0.2572011 0.02 
v -0.3578139 0.2372011 0.02 
v -0.2778139 0.2372011 0.02 
v -0.2778139 0.2172011 0.02 
v -0.04718611 0.2572011 0.02 
v -0.3828139 0.2978849 0.02 
v -0.4031558 0.3631558 0.02 
v -0.3828139 0.3428138 0.02 
v -0.04718611 0.3428138 0.02 
v -0.04718611 0.2978849 0.02 
v -0.02684418 0.3631558 0.02 
v -0.02684418 0.3631558 0.4 
v -0.4031558 0.3631558 0.4 
v -0.04718611 0.3631558 0.04034193 
v -0.3828139 0.3631558 0.04034193 
v -0.3828139 0.3631558 0.3796581 
v -0.04718611 0.3631558 0.3796581 
v -0.255 0.3103494 0.02 
v -0.255 0.3303494 0.02 
v -0.175 0.3303494 0.02 
v -0.175 0.3103494 0.02 
v -0.04718611 0.2931558 0.04034193 
v -0.04718611 0.2931558 0.3796581 
v -0.3828139 0.2931558 0.04034193 
v -0.3828139 0.2931558 0.3796581 
vt 0 17.71654 
vt 16.92913 17.71654 
vt 0 15.35433 
vt -16.92913 15.35433 
vt -16.92913 17.71654 
vt 0 0.7874016 
vt 0 0 
vt -16.92913 0.7874016 
vt -16.92913 0 
vt -17.71654 15.35433 
vt -0.7874016 15.35433 
vt 0.7874016 15.35433 
vt 17.71654 15.35433 
vt 16.92913 15.35433 
vt 16.92913 0 
vt 0 1.574803 
vt -16.92913 1.574803 
vt 1.056858 1.574803 
vt 1.056858 15.74803 
vt 15.87228 1.574803 
vt 15.87228 15.74803 
vt 1.056858 0.7874016 
vt 15.87228 0.7874016 
vt -1.056858 15.74803 
vt -1.056858 0.7874016 
vt -15.87228 15.74803 
vt -15.87228 0.7874016 
vt -0.7874016 14.29747 
vt -0.7874016 10.92689 
vt -15.74803 14.29747 
vt -1.574803 10.92689 
vt -0.7874016 3.349844 
vt -15.74803 10.92689 
vt -1.574803 9.870033 
vt -15.74803 3.349844 
vt -15.74803 9.870033 
vt 16.92913 2.292987 
vt 0 2.292987 
vt 1.574803 0 
vt 1.574803 2.292987 
vt 17.71654 0 
vt 0.7874016 2.292987 
vt -0.7874016 2.292987 
vt -1.574803 2.292987 
vt -1.574803 0 
vt -17.71654 0 
vt 15.87228 3.349844 
vt 1.056858 3.349844 
vt 15.87228 9.870033 
vt 1.056858 9.870033 
vt 16.92913 0.7874016 
vt -1.056858 1.574803 
vt -15.87228 1.574803 
vt 15.87228 10.92689 
vt 1.056858 10.92689 
vt 0.7874016 10.92689 
vt 1.574803 9.870033 
vt 0.7874016 3.349844 
vt 15.74803 3.349844 
vt 0.7874016 14.29747 
vt 15.74803 9.870033 
vt 1.574803 10.92689 
vt 15.74803 14.29747 
vt 15.74803 10.92689 
vt 15.87228 14.29747 
vt 1.056858 14.29747 
vt -14.81542 0 
vt 0 7.577046 
vt -14.81542 7.577046 
vt 0 0.3937008 
vt 0 -0.3937008 
vt -14.81542 0.3937008 
vt -14.81542 -0.3937008 
vt 14.81542 -0.3937008 
vt 14.81542 0.3937008 
vt -0.3937008 0 
vt -0.3937008 7.577046 
vt 0.3937008 0 
vt 0.3937008 7.577046 
vt 0.8008635 0.8008635 
vt 13.0303 5.20138 
vt 14.01455 0.8008635 
vt 14.01455 6.776183 
vt 13.0303 5.988781 
vt 9.880697 5.988781 
vt 9.880697 5.20138 
vt 0.8008635 6.776183 
vt 14.81542 0 
vt 14.01455 2.569719 
vt 0.8008635 2.569719 
vt 0 3.370582 
vt -14.81542 3.370582 
vt 0 14.96063 
vt 14.01455 14.15977 
vt 0.8008635 14.15977 
vt 14.81542 14.96063 
vt -14.96063 3.370582 
vt -14.96063 0 
vt -14.81542 14.96063 
vt 0 3.123195E-14 
vt 14.96063 3.123195E-14 
vt 14.96063 3.370582 
vt 8.982512 1.29159 
vt 8.982512 2.078992 
vt 5.832906 2.078992 
vt 5.832906 1.29159 
vt -0.8008635 3.370582 
vt -0.8008635 0.6146769 
vt -14.15977 3.370582 
vt -14.15977 0.6146769 
vt 14.01455 0.6146769 
vt 0.8008635 0.6146769 
vt 14.01455 3.370582 
vt 0.8008635 3.370582 
vt 14.15977 0.6146769 
vt 14.15977 3.370582 
vt -14.01455 0.6146769 
vt -14.01455 3.370582 
vn 0 1 0 
vn 0 0 1 
vn 0 -1 0 
vn 1 0 0 
vn -1 0 0 
vn 0 0 -1 
f 6/16/3 5/1/3 7/5/3
f 7/5/3 8/17/3 6/16/3
f 10/19/1 9/18/1 11/20/1
f 11/20/1 12/21/1 10/19/1
f 14/19/1 13/22/1 15/23/1
f 15/23/1 16/21/1 14/19/1
f 18/25/3 17/24/3 19/26/3
f 19/26/3 20/27/3 18/25/3
f 22/6/3 21/16/3 23/17/3
f 23/17/3 24/8/3 22/6/3
f 25/29/4 20/28/4 19/30/4
f 19/30/4 11/31/4 25/29/4
f 11/31/4 15/32/4 25/29/4
f 19/30/4 12/33/4 11/31/4
f 15/32/4 11/31/4 26/34/4
f 26/34/4 16/35/4 15/32/4
f 26/34/4 27/36/4 16/35/4
f 6/7/6 8/15/6 23/37/6
f 23/37/6 21/38/6 6/7/6
f 23/40/5 8/39/5 7/41/5
f 23/40/5 7/41/5 2/13/5
f 23/40/5 2/13/5 4/12/5
f 4/12/5 24/42/5 23/40/5
f 22/43/4 3/11/4 1/10/4
f 1/10/4 21/44/4 22/43/4
f 1/10/4 6/45/4 21/44/4
f 1/10/4 5/46/4 6/45/4
f 14/48/6 16/47/6 27/49/6
f 27/49/6 28/50/6 14/48/6
f 1/1/1 3/6/1 4/51/1
f 4/51/1 2/2/1 1/1/1
f 7/9/2 5/7/2 1/3/2
f 1/3/2 2/4/2 7/9/2
f 29/52/3 28/24/3 27/26/3
f 27/26/3 26/53/3 29/52/3
f 29/50/6 26/49/6 11/54/6
f 11/54/6 9/55/6 29/50/6
f 29/57/5 30/56/5 13/58/5
f 13/58/5 14/59/5 29/57/5
f 29/57/5 18/60/5 30/56/5
f 14/59/5 28/61/5 29/57/5
f 18/60/5 29/57/5 9/62/5
f 9/62/5 17/63/5 18/60/5
f 9/62/5 10/64/5 17/63/5
f 15/47/6 22/38/6 24/37/6
f 24/37/6 4/14/6 15/47/6
f 4/14/6 25/54/6 15/47/6
f 4/14/6 20/65/6 25/54/6
f 4/14/6 18/66/6 20/65/6
f 22/38/6 15/47/6 13/48/6
f 13/48/6 3/3/6 22/38/6
f 18/66/6 4/14/6 3/3/6
f 13/48/6 30/55/6 3/3/6
f 30/55/6 18/66/6 3/3/6
f 10/55/6 12/54/6 19/65/6
f 19/65/6 17/66/6 10/55/6
f 6/16/3 5/1/3 7/5/3
f 7/5/3 8/17/3 6/16/3
f 10/19/1 9/18/1 11/20/1
f 11/20/1 12/21/1 10/19/1
f 14/19/1 13/22/1 15/23/1
f 15/23/1 16/21/1 14/19/1
f 18/25/3 17/24/3 19/26/3
f 19/26/3 20/27/3 18/25/3
f 22/6/3 21/16/3 23/17/3
f 23/17/3 24/8/3 22/6/3
f 25/29/4 20/28/4 19/30/4
f 19/30/4 11/31/4 25/29/4
f 11/31/4 15/32/4 25/29/4
f 19/30/4 12/33/4 11/31/4
f 15/32/4 11/31/4 26/34/4
f 26/34/4 16/35/4 15/32/4
f 26/34/4 27/36/4 16/35/4
f 6/7/6 8/15/6 23/37/6
f 23/37/6 21/38/6 6/7/6
f 23/40/5 8/39/5 7/41/5
f 23/40/5 7/41/5 2/13/5
f 23/40/5 2/13/5 4/12/5
f 4/12/5 24/42/5 23/40/5
f 22/43/4 3/11/4 1/10/4
f 1/10/4 21/44/4 22/43/4
f 1/10/4 6/45/4 21/44/4
f 1/10/4 5/46/4 6/45/4
f 14/48/6 16/47/6 27/49/6
f 27/49/6 28/50/6 14/48/6
f 1/1/1 3/6/1 4/51/1
f 4/51/1 2/2/1 1/1/1
f 7/9/2 5/7/2 1/3/2
f 1/3/2 2/4/2 7/9/2
f 29/52/3 28/24/3 27/26/3
f 27/26/3 26/53/3 29/52/3
f 29/50/6 26/49/6 11/54/6
f 11/54/6 9/55/6 29/50/6
f 29/57/5 30/56/5 13/58/5
f 13/58/5 14/59/5 29/57/5
f 29/57/5 18/60/5 30/56/5
f 14/59/5 28/61/5 29/57/5
f 18/60/5 29/57/5 9/62/5
f 9/62/5 17/63/5 18/60/5
f 9/62/5 10/64/5 17/63/5
f 15/47/6 22/38/6 24/37/6
f 24/37/6 4/14/6 15/47/6
f 4/14/6 25/54/6 15/47/6
f 4/14/6 20/65/6 25/54/6
f 4/14/6 18/66/6 20/65/6
f 22/38/6 15/47/6 13/48/6
f 13/48/6 3/3/6 22/38/6
f 18/66/6 4/14/6 3/3/6
f 13/48/6 30/55/6 3/3/6
f 30/55/6 18/66/6 3/3/6
f 10/55/6 12/54/6 19/65/6
f 19/65/6 17/66/6 10/55/6
f 32/67/2 31/7/2 9/68/2
f 9/68/2 11/69/2 32/67/2
f 33/71/3 31/70/3 32/72/3
f 32/72/3 34/73/3 33/71/3
f 9/70/1 35/71/1 36/74/1
f 36/74/1 11/75/1 9/70/1
f 36/77/5 34/76/5 32/78/5
f 32/78/5 11/79/5 36/77/5
f 33/78/4 35/79/4 9/77/4
f 9/77/4 31/76/4 33/78/4
f 38/81/6 37/80/6 39/82/6
f 39/82/6 40/83/6 38/81/6
f 40/83/6 41/84/6 38/81/6
f 40/83/6 42/85/6 41/84/6
f 37/80/6 38/81/6 43/86/6
f 43/86/6 44/87/6 37/80/6
f 43/86/6 42/85/6 44/87/6
f 42/85/6 40/83/6 44/87/6
f 12/67/2 10/7/2 51/91/2
f 51/91/2 52/92/2 12/67/2
f 53/80/1 51/93/1 50/7/1
f 50/7/1 46/88/1 53/80/1
f 46/88/1 54/82/1 53/80/1
f 46/88/1 55/94/1 54/82/1
f 51/93/1 53/80/1 56/95/1
f 56/95/1 52/96/1 51/93/1
f 56/95/1 55/94/1 52/96/1
f 55/94/1 46/88/1 52/96/1
f 30/7/4 50/91/4 51/97/4
f 51/97/4 10/98/4 30/7/4
f 30/7/3 10/93/3 12/99/3
f 12/99/3 25/67/3 30/7/3
f 46/91/5 25/100/5 12/101/5
f 12/101/5 52/102/5 46/91/5
f 57/103/6 49/80/6 45/82/6
f 45/82/6 47/89/6 57/103/6
f 47/89/6 58/104/6 57/103/6
f 47/89/6 59/105/6 58/104/6
f 49/80/6 57/103/6 60/106/6
f 60/106/6 48/90/6 49/80/6
f 60/106/6 59/105/6 48/90/6
f 59/105/6 47/89/6 48/90/6
f 62/95/1 61/80/1 63/82/1
f 63/82/1 64/94/1 62/95/1
f 63/108/4 54/107/4 55/109/4
f 55/109/4 64/110/4 63/108/4
f 62/112/6 64/111/6 55/113/6
f 55/113/6 56/114/6 62/112/6
f 53/114/5 61/112/5 62/115/5
f 62/115/5 56/116/5 53/114/5
f 63/117/2 61/108/2 53/107/2
f 53/107/2 54/118/2 63/117/2
