# Split from lampRoundFloor.obj mat=metal
v 0 0 0.12 
v 0 0 0 
v -0.12 0 0.12 
v -0.12 0 0 
v -0.012 0.02 0.108 
v -0.05274148 0.02 0.05274148 
v -0.012 0.02 0.012 
v -0.108 0.02 0.012 
v -0.06725851 0.02 0.05274148 
v -0.06725851 0.02 0.06725851 
v -0.05274148 0.02 0.06725851 
v -0.108 0.02 0.108 
v -0.05092685 0.76075 0.05092685 
v -0.05092685 0.76075 0.06907315 
v -0.06907315 0.76075 0.05092685 
v -0.06907315 0.76075 0.06907315 
vt 0 4.72441 
vt 0 0 
vt -4.72441 4.72441 
vt -4.72441 0 
vt 0.472441 4.251968 
vt 2.076436 2.076436 
vt 0.472441 0.472441 
vt 4.251968 0.472441 
vt 2.647973 2.076436 
vt 2.647973 2.647973 
vt 2.076436 2.647973 
vt 4.251968 4.251968 
vt 2.004994 2.004994 
vt 2.004994 2.719415 
vt 2.719415 2.004994 
vt 2.719415 2.719415 
vt -2.86582E-18 -2.430689 
vt 0.472441 -1.512429 
vt 4.72441 -2.430689 
vt 4.251968 -1.512429 
vt 4.72441 0 
vt 4.251968 0.9182602 
vt 0.472441 0.9182602 
vt -2.076436 0.793886 
vt -2.647973 0.793886 
vt -2.004994 29.95736 
vt -2.719415 29.95736 
vt -2.004994 29.94579 
vt -2.076436 0.7823126 
vt -2.719415 29.94579 
vt -2.647973 0.7823126 
vt 2.647973 0.7823126 
vt 2.076436 0.7823126 
vt 2.719415 29.94579 
vt 2.004994 29.94579 
vt 0 -2.430689 
vt -4.72441 -2.430689 
vt -0.472441 -1.512429 
vt -4.251968 -1.512429 
vt 2.004994 29.95736 
vt 2.719415 29.95736 
vt 2.076436 0.793886 
vt 2.647973 0.793886 
vt -4.72441 5.897808E-18 
vt -0.472441 0.9182602 
vt -4.251968 0.9182602 
vn 0 -1 0 
vn 0 1 0 
vn -0.8574929 0.5144957 0 
vn 0 0.5144957 -0.8574929 
vn 0 -0.002449712 0.999997 
vn 0.999997 -0.002449712 0 
vn 0 -0.002449712 -0.999997 
vn 0 0.5144957 0.8574929 
vn -0.999997 -0.002449712 0 
vn 0.8574929 0.5144957 0 
f 2/2/1 1/1/1 3/3/1
f 3/3/1 4/4/1 2/2/1
f 6/6/2 5/5/2 7/7/2
f 7/7/2 8/8/2 6/6/2
f 8/8/2 9/9/2 6/6/2
f 8/8/2 10/10/2 9/9/2
f 5/5/2 6/6/2 11/11/2
f 11/11/2 12/12/2 5/5/2
f 11/11/2 10/10/2 12/12/2
f 10/10/2 8/8/2 12/12/2
f 14/14/2 13/13/2 15/15/2
f 15/15/2 16/16/2 14/14/2
f 8/18/3 4/17/3 3/19/3
f 3/19/3 12/20/3 8/18/3
f 2/2/4 4/21/4 8/22/4
f 8/22/4 7/23/4 2/2/4
f 10/25/5 11/24/5 14/26/5
f 14/26/5 16/27/5 10/25/5
f 6/29/6 13/28/6 14/30/6
f 14/30/6 11/31/6 6/29/6
f 6/33/7 9/32/7 15/34/7
f 15/34/7 13/35/7 6/33/7
f 3/37/8 1/36/8 5/38/8
f 5/38/8 12/39/8 3/37/8
f 16/41/9 15/40/9 9/42/9
f 9/42/9 10/43/9 16/41/9
f 1/44/10 2/2/10 7/45/10
f 7/45/10 5/46/10 1/44/10
f 2/2/1 1/1/1 3/3/1
f 3/3/1 4/4/1 2/2/1
f 6/6/2 5/5/2 7/7/2
f 7/7/2 8/8/2 6/6/2
f 8/8/2 9/9/2 6/6/2
f 8/8/2 10/10/2 9/9/2
f 5/5/2 6/6/2 11/11/2
f 11/11/2 12/12/2 5/5/2
f 11/11/2 10/10/2 12/12/2
f 10/10/2 8/8/2 12/12/2
f 14/14/2 13/13/2 15/15/2
f 15/15/2 16/16/2 14/14/2
f 8/18/3 4/17/3 3/19/3
f 3/19/3 12/20/3 8/18/3
f 2/2/4 4/21/4 8/22/4
f 8/22/4 7/23/4 2/2/4
f 10/25/5 11/24/5 14/26/5
f 14/26/5 16/27/5 10/25/5
f 6/29/6 13/28/6 14/30/6
f 14/30/6 11/31/6 6/29/6
f 6/33/7 9/32/7 15/34/7
f 15/34/7 13/35/7 6/33/7
f 3/37/8 1/36/8 5/38/8
f 5/38/8 12/39/8 3/37/8
f 16/41/9 15/40/9 9/42/9
f 9/42/9 10/43/9 16/41/9
f 1/44/10 2/2/10 7/45/10
f 7/45/10 5/46/10 1/44/10
