# Split from loungeSofa.obj mat=wood
v -0.98 0.05 0.02 
v -0.98 0.05 0.06 
v -0.98 0.05 0.37 
v -0.98 0.05 0.41 
v 0 0.05 0.02 
v 0 0.05 0.06 
v -9.023893E-16 0.05 0.37 
v -9.023893E-16 0.05 0.41 
v -0.04 0.05 0.41 
v -0.94 0.05 0.41 
v -0.04 0.05 0.37 
v -0.94 0.05 0.06 
v -0.94 0.05 0.37 
v -0.94 0.05 0.02 
v -0.04 0.05 0.02 
v -0.04 0.05 0.06 
v -0.94 9.023893E-17 0.41 
v -0.94 9.023893E-17 0.37 
v -0.98 9.023893E-17 0.41 
v -0.98 9.023893E-17 0.37 
v -0.98 0 0.02 
v -0.94 0 0.02 
v -0.04 9.023893E-17 0.37 
v -9.023893E-16 9.023893E-17 0.37 
v -9.023893E-16 9.023893E-17 0.41 
v 0 0 0.06 
v 0 0 0.02 
v -0.04 0 0.06 
v -0.04 0 0.02 
v -0.94 0 0.06 
v -0.98 0 0.06 
v -0.04 9.023893E-17 0.41 
vt 0.7874016 1.968504 
vt 2.362205 1.968504 
vt 14.56693 1.968504 
vt 16.14173 1.968504 
vt -0.7874016 1.968504 
vt -2.362205 1.968504 
vt -14.56693 1.968504 
vt -16.14173 1.968504 
vt -3.787312E-14 1.968504 
vt -1.574803 1.968504 
vt -37.00787 1.968504 
vt -38.58268 14.56693 
vt -38.58268 1.968504 
vt -1.574803 16.14173 
vt -1.574803 14.56693 
vt -37.00787 16.14173 
vt -37.00787 2.362205 
vt -37.00787 14.56693 
vt -38.58268 2.362205 
vt -37.00787 0.7874016 
vt -1.574803 0.7874016 
vt -1.574803 2.362205 
vt 38.58268 1.968504 
vt 37.00787 1.968504 
vt 0 1.968504 
vt 1.574803 1.968504 
vt -38.58268 16.14173 
vt -37.00787 1.200817E-13 
vt -38.58268 1.200817E-13 
vt 14.56693 -2.7498E-13 
vt 16.14173 -2.7498E-13 
vt 38.58268 3.552714E-15 
vt 37.00787 3.552714E-15 
vt -14.56693 3.552714E-15 
vt -16.14173 3.552714E-15 
vt 38.58268 0 
vt 37.00787 0 
vt 1.574803 3.552714E-15 
vt 3.552714E-14 3.552714E-15 
vt 3.552714E-14 1.968504 
vt 0 2.362205 
vt 0 0.7874016 
vt -0.7874016 0 
vt -2.362205 0 
vt -37.00787 0 
vt -38.58268 0 
vt 0 0 
vt -1.574803 0 
vt 0.7874016 0 
vt 2.362205 0 
vt -38.58268 0.7874016 
vt -3.552714E-14 3.552714E-15 
vt -1.574803 3.552714E-15 
vt 14.56693 3.552714E-15 
vt 16.14173 3.552714E-15 
vt -3.552714E-14 16.14173 
vt -3.552714E-14 14.56693 
vt 1.574803 0 
vn 1 0 0 
vn -1 0 0 
vn 0 0 1 
vn 0 -1 0 
vn 0 0 -1 
f 18/18/4 17/16/4 19/27/4
f 19/27/4 20/12/4 18/18/4
f 19/29/3 17/28/3 10/11/3
f 10/11/3 4/13/3 19/29/3
f 3/3/2 20/30/2 19/31/2
f 19/31/2 4/4/2 3/3/2
f 18/33/5 20/32/5 3/23/5
f 3/23/5 13/24/5 18/33/5
f 18/34/1 13/7/1 10/8/1
f 10/8/1 17/35/1 18/34/1
f 22/37/5 21/36/5 1/23/5
f 1/23/5 14/24/5 22/37/5
f 24/39/5 23/38/5 11/26/5
f 11/26/5 7/40/5 24/39/5
f 24/34/1 7/7/1 8/8/1
f 8/8/1 25/35/1 24/34/1
f 27/42/4 26/41/4 28/22/4
f 28/22/4 29/21/4 27/42/4
f 22/43/1 14/5/1 12/6/1
f 12/6/1 30/44/1 22/43/1
f 27/43/1 5/5/1 6/6/1
f 6/6/1 26/44/1 27/43/1
f 31/46/3 30/45/3 12/11/3
f 12/11/3 2/13/3 31/46/3
f 28/48/3 26/47/3 6/25/3
f 6/25/3 16/10/3 28/48/3
f 15/1/2 29/49/2 28/50/2
f 28/50/2 16/2/2 15/1/2
f 1/1/2 21/49/2 31/50/2
f 31/50/2 2/2/2 1/1/2
f 22/20/4 30/17/4 31/19/4
f 31/19/4 21/51/4 22/20/4
f 32/53/3 25/52/3 8/9/3
f 8/9/3 9/10/3 32/53/3
f 11/3/2 23/54/2 32/55/2
f 32/55/2 9/4/2 11/3/2
f 24/57/4 25/56/4 32/14/4
f 32/14/4 23/15/4 24/57/4
f 27/47/5 29/58/5 15/26/5
f 15/26/5 5/25/5 27/47/5
f 18/18/4 17/16/4 19/27/4
f 19/27/4 20/12/4 18/18/4
f 19/29/3 17/28/3 10/11/3
f 10/11/3 4/13/3 19/29/3
f 3/3/2 20/30/2 19/31/2
f 19/31/2 4/4/2 3/3/2
f 18/33/5 20/32/5 3/23/5
f 3/23/5 13/24/5 18/33/5
f 18/34/1 13/7/1 10/8/1
f 10/8/1 17/35/1 18/34/1
f 22/37/5 21/36/5 1/23/5
f 1/23/5 14/24/5 22/37/5
f 24/39/5 23/38/5 11/26/5
f 11/26/5 7/40/5 24/39/5
f 24/34/1 7/7/1 8/8/1
f 8/8/1 25/35/1 24/34/1
f 27/42/4 26/41/4 28/22/4
f 28/22/4 29/21/4 27/42/4
f 22/43/1 14/5/1 12/6/1
f 12/6/1 30/44/1 22/43/1
f 27/43/1 5/5/1 6/6/1
f 6/6/1 26/44/1 27/43/1
f 31/46/3 30/45/3 12/11/3
f 12/11/3 2/13/3 31/46/3
f 28/48/3 26/47/3 6/25/3
f 6/25/3 16/10/3 28/48/3
f 15/1/2 29/49/2 28/50/2
f 28/50/2 16/2/2 15/1/2
f 1/1/2 21/49/2 31/50/2
f 31/50/2 2/2/2 1/1/2
f 22/20/4 30/17/4 31/19/4
f 31/19/4 21/51/4 22/20/4
f 32/53/3 25/52/3 8/9/3
f 8/9/3 9/10/3 32/53/3
f 11/3/2 23/54/2 32/55/2
f 32/55/2 9/4/2 11/3/2
f 24/57/4 25/56/4 32/14/4
f 32/14/4 23/15/4 24/57/4
f 27/47/5 29/58/5 15/26/5
f 15/26/5 5/25/5 27/47/5
