# Split from pottedPlant.obj mat=wood
v -0.08578847 0.24304 -0.04953 
v -0.08578847 0.24304 0.04953 
v -0.06754998 0 -0.039 
v -0.06754998 0 0.039 
v -0.06454916 0.24304 -0.03726747 
v -0.06454916 0.21824 -0.03726747 
v -0.06454916 0.24304 0.03726748 
v -0.06454916 0.21824 0.03726748 
v 2.221758E-09 0.21824 0.07453495 
v 2.221758E-09 0.24304 0.07453495 
v -2.221765E-09 0.21824 -0.07453495 
v -2.221765E-09 0.24304 -0.07453495 
v 0.06454916 0.21824 0.03726747 
v 0.06454916 0.24304 0.03726747 
v 0.06454916 0.24304 -0.03726748 
v 0.08578847 0.24304 -0.04953 
v -2.952815E-09 0.24304 -0.09906 
v 0.08578847 0.24304 0.04953 
v 2.952809E-09 0.24304 0.09906 
v 2.325045E-09 0 0.078 
v -2.325053E-09 0 -0.078 
v 0.06754998 0 -0.039 
v 0.06454916 0.21824 -0.03726748 
v 0.06754998 0 0.039 
vt -0.975 4.897211 
vt 0.975 4.897211 
vt -0.7677165 0.09950693 
vt 0.7677165 0.09950693 
vt 0.7336117 4.784252 
vt 0.7336117 4.296063 
vt -0.7336117 4.784252 
vt -0.7336117 4.296063 
vt -1.270653 0.7336116 
vt -1.270653 -0.7336118 
vt -1.68875 -0.975 
vt 5.812628E-08 -1.95 
vt 4.373553E-08 -1.467223 
vt 1.270653 -0.7336116 
vt 1.68875 -0.975 
vt 1.68875 0.975 
vt -1.68875 0.975 
vt -5.812615E-08 1.95 
vt -4.373539E-08 1.467223 
vt 1.270653 0.7336118 
vt 1.329724 0.7677165 
vt 1.329724 -0.7677166 
vt 4.576861E-08 1.535433 
vt -4.576875E-08 -1.535433 
vt -1.329724 0.7677166 
vt -1.329724 -0.7677165 
vn -0.9971961 -0.07483277 0 
vn 1 0 0 
vn 0.5 0 -0.8660254 
vn 0.5 0 0.8660254 
vn -0.5 0 -0.8660254 
vn 0 1 0 
vn -0.498598 -0.07483277 0.8635972 
vn 0.498598 -0.07483277 -0.8635972 
vn -1 0 0 
vn 0 -1 0 
vn -0.498598 -0.07483277 -0.8635972 
vn -0.5 0 0.8660254 
vn 0.498598 -0.07483277 0.8635972 
vn 0.9971961 -0.07483277 0 
f 2/2/1 1/1/1 3/3/1
f 3/3/1 4/4/1 2/2/1
f 6/6/2 5/5/2 7/7/2
f 7/7/2 8/8/2 6/6/2
f 9/8/3 8/6/3 7/5/3
f 7/5/3 10/7/3 9/8/3
f 6/8/4 11/6/4 12/5/4
f 12/5/4 5/7/4 6/8/4
f 13/8/5 9/6/5 10/5/5
f 10/5/5 14/7/5 13/8/5
f 15/10/6 14/9/6 16/11/6
f 16/11/6 17/12/6 15/10/6
f 17/12/6 12/13/6 15/10/6
f 17/12/6 5/14/6 12/13/6
f 17/12/6 1/15/6 5/14/6
f 1/15/6 2/16/6 5/14/6
f 18/17/6 16/11/6 14/9/6
f 14/9/6 19/18/6 18/17/6
f 14/9/6 10/19/6 19/18/6
f 10/19/6 2/16/6 19/18/6
f 10/19/6 7/20/6 2/16/6
f 7/20/6 5/14/6 2/16/6
f 4/3/7 20/4/7 19/2/7
f 19/2/7 2/1/7 4/3/7
f 22/3/8 21/4/8 17/2/8
f 17/2/8 16/1/8 22/3/8
f 15/7/9 23/8/9 13/6/9
f 13/6/9 14/5/9 15/7/9
f 22/22/10 24/21/10 20/23/10
f 20/23/10 21/24/10 22/22/10
f 20/23/10 4/25/10 21/24/10
f 4/25/10 3/26/10 21/24/10
f 21/3/11 3/4/11 1/2/11
f 1/2/11 17/1/11 21/3/11
f 11/8/12 23/6/12 15/5/12
f 15/5/12 12/7/12 11/8/12
f 20/3/13 24/4/13 18/2/13
f 18/2/13 19/1/13 20/3/13
f 22/4/14 16/2/14 18/1/14
f 18/1/14 24/3/14 22/4/14
f 2/2/1 1/1/1 3/3/1
f 3/3/1 4/4/1 2/2/1
f 6/6/2 5/5/2 7/7/2
f 7/7/2 8/8/2 6/6/2
f 9/8/3 8/6/3 7/5/3
f 7/5/3 10/7/3 9/8/3
f 6/8/4 11/6/4 12/5/4
f 12/5/4 5/7/4 6/8/4
f 13/8/5 9/6/5 10/5/5
f 10/5/5 14/7/5 13/8/5
f 15/10/6 14/9/6 16/11/6
f 16/11/6 17/12/6 15/10/6
f 17/12/6 12/13/6 15/10/6
f 17/12/6 5/14/6 12/13/6
f 17/12/6 1/15/6 5/14/6
f 1/15/6 2/16/6 5/14/6
f 18/17/6 16/11/6 14/9/6
f 14/9/6 19/18/6 18/17/6
f 14/9/6 10/19/6 19/18/6
f 10/19/6 2/16/6 19/18/6
f 10/19/6 7/20/6 2/16/6
f 7/20/6 5/14/6 2/16/6
f 4/3/7 20/4/7 19/2/7
f 19/2/7 2/1/7 4/3/7
f 22/3/8 21/4/8 17/2/8
f 17/2/8 16/1/8 22/3/8
f 15/7/9 23/8/9 13/6/9
f 13/6/9 14/5/9 15/7/9
f 22/22/10 24/21/10 20/23/10
f 20/23/10 21/24/10 22/22/10
f 20/23/10 4/25/10 21/24/10
f 4/25/10 3/26/10 21/24/10
f 21/3/11 3/4/11 1/2/11
f 1/2/11 17/1/11 21/3/11
f 11/8/12 23/6/12 15/5/12
f 15/5/12 12/7/12 11/8/12
f 20/3/13 24/4/13 18/2/13
f 18/2/13 19/1/13 20/3/13
f 22/4/14 16/2/14 18/1/14
f 18/1/14 24/3/14 22/4/14
