# Split from pottedPlant.obj mat=woodDark
v -0.06454916 0.21824 -0.03726747 
v -0.06454916 0.21824 0.03726748 
v 2.221758E-09 0.21824 0.07453495 
v -2.221765E-09 0.21824 -0.07453495 
v 0.06454916 0.21824 0.03726747 
v 0.06454916 0.21824 -0.03726748 
vt -1.270653 0.7336116 
vt -1.270653 -0.7336118 
vt 4.373553E-08 -1.467223 
vt 1.270653 -0.7336116 
vt -4.373539E-08 1.467223 
vt 1.270653 0.7336118 
vn 0 1 0 
f 3/5/1 5/1/1 6/2/1
f 6/2/1 4/3/1 3/5/1
f 4/3/1 2/6/1 3/5/1
f 4/3/1 1/4/1 2/6/1
f 3/5/1 5/1/1 6/2/1
f 6/2/1 4/3/1 3/5/1
f 4/3/1 2/6/1 3/5/1
f 4/3/1 1/4/1 2/6/1
