# Split from stoolBar.obj mat=carpet
v -0.17947 0.355 0.05112689 
v -0.17947 0.355 0.07112689 
v -0.17947 0.355 0.1587509 
v -0.17947 0.355 0.1787509 
v -0.08597 0.355 0.05112689 
v -0.08597 0.355 0.07112689 
v -0.08597 0.355 0.1587509 
v -0.08597 0.355 0.1787509 
v -0.19947 0.355 0.07112689 
v -0.06597 0.355 0.07112689 
v 0 0.395 0.1149389 
v -0.06636 0.395 0.2298778 
v -0.06636 0.395 0 
v -0.19908 0.395 0 
v -0.19908 0.395 0.2298778 
v -0.26544 0.395 0.1149389 
v -0.06597 0.355 0.1787509 
v -0.19947 0.355 0.1787509 
v -0.06597 0.355 0.1587509 
v -0.19947 0.355 0.1587509 
v -0.19947 0.355 0.05112689 
v -0.06597 0.355 0.05112689 
v -0.07347 0.355 0.01231488 
v -0.043845 0.355 0.06362689 
v -0.13272 0.355 0.01231488 
v -0.13272 0.355 0.2175629 
v -0.19197 0.355 0.2175629 
v -0.221595 0.355 0.1662509 
v -0.19197 0.355 0.01231488 
v -0.221595 0.355 0.06362689 
v -0.25122 0.355 0.1149389 
v -0.07347 0.355 0.2175629 
v -0.043845 0.355 0.1662509 
v -0.01422 0.355 0.1149389 
v -0.25122 0.435 0.1149389 
v -0.19197 0.435 0.2175629 
v -0.07347 0.435 0.01231488 
v -0.01422 0.435 0.1149389 
v -0.19197 0.435 0.01231488 
v -0.07347 0.435 0.2175629 
vt -2.597244 6.250035 
vt -2.597244 2.800271 
vt -3.384646 6.250035 
vt -3.384646 2.800271 
vt -3.384646 7.037437 
vt -7.065748 7.037437 
vt -7.065748 6.250035 
vt -3.384646 2.01287 
vt -7.065748 2.800271 
vt -7.065748 2.01287 
vt -7.853149 6.250035 
vt -7.853149 2.800271 
vt -7.853149 7.037437 
vt -2.597244 7.037437 
vt -7.853149 2.01287 
vt -2.597244 2.01287 
vt -2.89252 0.4848378 
vt -1.726181 2.504996 
vt -5.225197 0.4848378 
vt -5.225197 8.565469 
vt -7.557874 8.565469 
vt -8.724213 6.545311 
vt -7.557874 0.4848378 
vt -8.724213 2.504996 
vt -9.890552 4.525153 
vt -2.89252 8.565469 
vt -1.726181 6.545311 
vt -0.5598425 4.525153 
vt -1.026378 13.18176 
vt 3.638976 13.18176 
vt -1.306299 11.53401 
vt 3.918898 11.53401 
vt 1.306299 15.52849 
vt -3.918898 15.52849 
vt 1.026378 17.17624 
vt -3.638976 17.17624 
vt 3.918898 12.8655 
vt 4.198819 14.51325 
vt 9.144094 12.8655 
vt 8.864173 14.51325 
vt -2.89252 15.87798 
vt -5.225197 15.87798 
vt -2.612598 17.52573 
vt -7.557874 15.87798 
vt -7.837795 17.52573 
vt -4.198819 13.88074 
vt -6.531496 13.88074 
vt -9.144094 15.52849 
vt -8.864173 13.88074 
vt -2.612598 12.19975 
vt -7.837795 12.19975 
vt -2.89252 13.8475 
vt -7.557874 13.8475 
vt -4.198819 15.84474 
vt -3.918898 14.19699 
vt -8.864173 15.84474 
vt -9.144094 14.19699 
vt 7.557874 13.21499 
vt 5.225197 13.21499 
vt 7.837795 14.86274 
vt 2.89252 13.21499 
vt 2.612598 14.86274 
vt 1.306299 14.19699 
vt 1.026378 12.54925 
vt -1.306299 12.54925 
vt -3.638976 12.54925 
vt -1.026378 16.54373 
vt -1.306299 18.19147 
vt 1.306299 16.54373 
vt 3.918898 18.19147 
vt 3.638976 16.54373 
vt 7.557874 16.51049 
vt 2.89252 16.51049 
vt 3.918898 16.85998 
vt 9.144094 16.85998 
vt 4.198819 15.21223 
vt 6.531496 15.21223 
vt 8.864173 15.21223 
vt 0.5598425 4.525153 
vt 2.89252 8.565469 
vt 2.89252 0.4848378 
vt 7.557874 0.4848378 
vt 7.557874 8.565469 
vt 9.890552 4.525153 
vn 0 -1 0 
vn 0 1 0 
vn -0.8276871 0.2942428 0.4778653 
vn 0.8276871 0.2942428 -0.4778653 
vn -0.8276871 0.2942428 -0.4778653 
vn 0 -0.2942428 0.9557307 
vn 0.8276871 -0.2942428 0.4778653 
vn 0 0.2942428 0.9557307 
vn 0.8276871 0.2942428 0.4778653 
vn 0 -0.2942428 -0.9557307 
vn 0.8276871 -0.2942428 -0.4778653 
vn -0.8276871 -0.2942428 0.4778653 
vn 0 0.2942428 -0.9557307 
vn -0.8276871 -0.2942428 -0.4778653 
f 22/16/1 23/17/1 24/18/1
f 24/18/1 17/14/1 22/16/1
f 17/14/1 19/1/1 22/16/1
f 19/1/1 10/2/1 22/16/1
f 22/16/1 5/8/1 23/17/1
f 5/8/1 25/19/1 23/17/1
f 5/8/1 26/20/1 25/19/1
f 26/20/1 4/6/1 25/19/1
f 26/20/1 27/21/1 4/6/1
f 27/21/1 18/13/1 4/6/1
f 27/21/1 28/22/1 18/13/1
f 28/22/1 20/11/1 18/13/1
f 28/22/1 9/12/1 20/11/1
f 28/22/1 21/15/1 9/12/1
f 25/19/1 4/6/1 1/10/1
f 1/10/1 29/23/1 25/19/1
f 1/10/1 21/15/1 29/23/1
f 4/6/1 3/7/1 1/10/1
f 3/7/1 2/9/1 1/10/1
f 2/9/1 3/7/1 20/11/1
f 20/11/1 9/12/1 2/9/1
f 21/15/1 30/24/1 29/23/1
f 21/15/1 28/22/1 30/24/1
f 28/22/1 31/25/1 30/24/1
f 26/20/1 5/8/1 6/4/1
f 26/20/1 6/4/1 7/3/1
f 26/20/1 7/3/1 8/5/1
f 7/3/1 6/4/1 10/2/1
f 10/2/1 19/1/1 7/3/1
f 32/26/1 8/5/1 17/14/1
f 33/27/1 32/26/1 17/14/1
f 33/27/1 17/14/1 24/18/1
f 24/18/1 34/28/1 33/27/1
f 32/26/1 26/20/1 8/5/1
f 36/30/3 35/29/3 16/31/3
f 16/31/3 15/32/3 36/30/3
f 11/34/4 13/33/4 37/35/4
f 37/35/4 38/36/4 11/34/4
f 39/38/5 14/37/5 16/39/5
f 16/39/5 35/40/5 39/38/5
f 26/42/6 32/41/6 12/43/6
f 12/43/6 27/44/6 26/42/6
f 12/43/6 15/45/6 27/44/6
f 33/47/7 34/46/7 11/34/7
f 11/34/7 12/48/7 33/47/7
f 12/48/7 32/49/7 33/47/7
f 15/51/8 12/50/8 40/52/8
f 40/52/8 36/53/8 15/51/8
f 11/55/9 38/54/9 40/56/9
f 40/56/9 12/57/9 11/55/9
f 25/59/10 29/58/10 14/60/10
f 14/60/10 23/61/10 25/59/10
f 14/60/10 13/62/10 23/61/10
f 23/64/11 13/63/11 11/55/11
f 11/55/11 24/65/11 23/64/11
f 11/55/11 34/66/11 24/65/11
f 16/68/12 31/67/12 28/69/12
f 28/69/12 15/70/12 16/68/12
f 28/69/12 27/71/12 15/70/12
f 13/62/13 14/60/13 39/72/13
f 39/72/13 37/73/13 13/62/13
f 16/75/14 14/74/14 29/76/14
f 29/76/14 30/77/14 16/75/14
f 30/77/14 31/78/14 16/75/14
f 40/80/2 38/79/2 37/81/2
f 37/81/2 39/82/2 40/80/2
f 39/82/2 36/83/2 40/80/2
f 39/82/2 35/84/2 36/83/2
f 22/16/1 23/17/1 24/18/1
f 24/18/1 17/14/1 22/16/1
f 17/14/1 19/1/1 22/16/1
f 19/1/1 10/2/1 22/16/1
f 22/16/1 5/8/1 23/17/1
f 5/8/1 25/19/1 23/17/1
f 5/8/1 26/20/1 25/19/1
f 26/20/1 4/6/1 25/19/1
f 26/20/1 27/21/1 4/6/1
f 27/21/1 18/13/1 4/6/1
f 27/21/1 28/22/1 18/13/1
f 28/22/1 20/11/1 18/13/1
f 28/22/1 9/12/1 20/11/1
f 28/22/1 21/15/1 9/12/1
f 25/19/1 4/6/1 1/10/1
f 1/10/1 29/23/1 25/19/1
f 1/10/1 21/15/1 29/23/1
f 4/6/1 3/7/1 1/10/1
f 3/7/1 2/9/1 1/10/1
f 2/9/1 3/7/1 20/11/1
f 20/11/1 9/12/1 2/9/1
f 21/15/1 30/24/1 29/23/1
f 21/15/1 28/22/1 30/24/1
f 28/22/1 31/25/1 30/24/1
f 26/20/1 5/8/1 6/4/1
f 26/20/1 6/4/1 7/3/1
f 26/20/1 7/3/1 8/5/1
f 7/3/1 6/4/1 10/2/1
f 10/2/1 19/1/1 7/3/1
f 32/26/1 8/5/1 17/14/1
f 33/27/1 32/26/1 17/14/1
f 33/27/1 17/14/1 24/18/1
f 24/18/1 34/28/1 33/27/1
f 32/26/1 26/20/1 8/5/1
f 36/30/3 35/29/3 16/31/3
f 16/31/3 15/32/3 36/30/3
f 11/34/4 13/33/4 37/35/4
f 37/35/4 38/36/4 11/34/4
f 39/38/5 14/37/5 16/39/5
f 16/39/5 35/40/5 39/38/5
f 26/42/6 32/41/6 12/43/6
f 12/43/6 27/44/6 26/42/6
f 12/43/6 15/45/6 27/44/6
f 33/47/7 34/46/7 11/34/7
f 11/34/7 12/48/7 33/47/7
f 12/48/7 32/49/7 33/47/7
f 15/51/8 12/50/8 40/52/8
f 40/52/8 36/53/8 15/51/8
f 11/55/9 38/54/9 40/56/9
f 40/56/9 12/57/9 11/55/9
f 25/59/10 29/58/10 14/60/10
f 14/60/10 23/61/10 25/59/10
f 14/60/10 13/62/10 23/61/10
f 23/64/11 13/63/11 11/55/11
f 11/55/11 24/65/11 23/64/11
f 11/55/11 34/66/11 24/65/11
f 16/68/12 31/67/12 28/69/12
f 28/69/12 15/70/12 16/68/12
f 28/69/12 27/71/12 15/70/12
f 13/62/13 14/60/13 39/72/13
f 39/72/13 37/73/13 13/62/13
f 16/75/14 14/74/14 29/76/14
f 29/76/14 30/77/14 16/75/14
f 30/77/14 31/78/14 16/75/14
f 40/80/2 38/79/2 37/81/2
f 37/81/2 39/82/2 40/80/2
f 39/82/2 36/83/2 40/80/2
f 39/82/2 35/84/2 36/83/2
