# Split from washer.obj mat=glass
v -0.1729586 0.3080343 -0.03000001 
v -0.195 0.3109361 -0.03000001 
v -0.1524194 0.2995266 -0.03000001 
v -0.2170413 0.3080343 -0.03000001 
v -0.2687518 0.2683554 -0.03000001 
v -0.2552181 0.2859929 -0.03000001 
v -0.2375806 0.2995266 -0.03000001 
v -0.2401613 0.2037334 -0.03 
v -0.2772595 0.2037334 -0.03 
v -0.2401613 0.2478162 -0.03 
v -0.2552181 0.1655567 -0.03 
v -0.2375806 0.152023 -0.03 
v -0.1347819 0.2859929 -0.03000001 
v -0.1729586 0.1435153 -0.03 
v -0.1524194 0.152023 -0.03 
v -0.1212482 0.1831942 -0.03 
v -0.1127405 0.2037334 -0.03 
v -0.1127405 0.2478162 -0.03 
v -0.1212482 0.2683554 -0.03000001 
v -0.1098387 0.2257748 -0.03 
v -0.2687518 0.1831942 -0.03 
v -0.1347819 0.1655567 -0.03 
v -0.195 0.1406136 -0.03 
v -0.2170413 0.1435153 -0.03 
v -0.2772595 0.2478162 -0.03 
vt -6.896112 0.8677698 
vt -6.896112 -0.8677698 
vt -8.356671 0.8677698 
vt -8.356671 -0.8677698 
vt -1.765305 -3.552714E-15 
vt -1.879549 0.8677698 
vt -2.214496 1.676403 
vt -2.747319 2.370791 
vt -3.441708 2.903615 
vt -4.25034 3.238561 
vt -5.11811 3.352805 
vt -5.98588 3.238561 
vt -6.794513 2.903615 
vt -7.488902 2.370791 
vt -8.021725 1.676403 
vt -8.021725 -1.676403 
vt -7.488902 -2.370791 
vt -6.794513 -2.903615 
vt -5.98588 -3.238561 
vt -5.11811 -3.352805 
vt -4.25034 -3.238561 
vt -3.441708 -2.903615 
vt -2.747319 -2.370791 
vt -2.214496 -1.676403 
vt -1.879549 -0.8677698 
vn 0 -1.192093E-07 -1 
vn 0 1.192093E-07 1 
f 17/25/2 20/5/2 18/6/2
f 18/6/2 19/7/2 17/25/2
f 19/7/2 16/24/2 17/25/2
f 19/7/2 13/8/2 16/24/2
f 13/8/2 22/23/2 16/24/2
f 13/8/2 15/22/2 22/23/2
f 13/8/2 3/9/2 15/22/2
f 3/9/2 1/10/2 15/22/2
f 1/10/2 14/21/2 15/22/2
f 1/10/2 2/11/2 14/21/2
f 2/11/2 23/20/2 14/21/2
f 2/11/2 4/12/2 23/20/2
f 4/12/2 24/19/2 23/20/2
f 4/12/2 7/13/2 24/19/2
f 7/13/2 12/18/2 24/19/2
f 7/13/2 10/1/2 12/18/2
f 7/13/2 6/14/2 10/1/2
f 6/14/2 25/3/2 10/1/2
f 6/14/2 5/15/2 25/3/2
f 12/18/2 10/1/2 8/2/2
f 8/2/2 11/17/2 12/18/2
f 8/2/2 9/4/2 11/17/2
f 9/4/2 21/16/2 11/17/2
f 17/25/1 18/6/1 20/5/1
f 18/6/1 17/25/1 19/7/1
f 19/7/1 17/25/1 16/24/1
f 19/7/1 16/24/1 13/8/1
f 13/8/1 16/24/1 22/23/1
f 13/8/1 22/23/1 15/22/1
f 13/8/1 15/22/1 3/9/1
f 3/9/1 15/22/1 1/10/1
f 1/10/1 15/22/1 14/21/1
f 1/10/1 14/21/1 2/11/1
f 2/11/1 14/21/1 23/20/1
f 2/11/1 23/20/1 4/12/1
f 4/12/1 23/20/1 24/19/1
f 4/12/1 24/19/1 7/13/1
f 7/13/1 24/19/1 12/18/1
f 7/13/1 12/18/1 10/1/1
f 7/13/1 10/1/1 6/14/1
f 6/14/1 10/1/1 25/3/1
f 6/14/1 25/3/1 5/15/1
f 12/18/1 8/2/1 10/1/1
f 8/2/1 12/18/1 11/17/1
f 8/2/1 11/17/1 9/4/1
f 9/4/1 11/17/1 21/16/1
