# Split from washer.obj mat=_defaultMat
v -0.2972594 0.2037334 -0.03 
v -0.2972594 0.2478162 -0.03 
v -0.2772595 0.2037334 -0.03 
v -0.2772595 0.2037335 0.02000001 
v -0.2772595 0.2478162 -0.03 
v -0.2772595 0.2478162 0.02 
vt -5.166146 -1.181102 
vt -4.290888 0.7874016 
vt -5.166146 0.7874016 
vt -0.8677698 0.7874016 
vt 0.8677698 0.7874016 
vt 0.8677698 -1.181102 
vt -0.8677698 -1.181102 
vn -0.9807853 -0.1950904 2.325658E-08 
vn 0 -1.192093E-07 -1 
vn -0.9807853 0.1950904 -2.325658E-08 
f 5/2/2 3/3/2 1/1/2
f 1/2/2 2/3/2 5/1/2
f 3/4/1 4/7/1 6/6/3
f 6/6/3 5/5/3 3/4/1
